<svg width="88.006mm" height="26.599mm" version="1.1" viewBox="0 0 88.006 26.599" xmlns="http://www.w3.org/2000/svg">
 <g transform="translate(-38.307 -135.17)" fill="#fff">
  <g transform="matrix(.26458 0 0 .26458 -10.533 124.61)">
   <path class="cls-2" d="m191.12 77.84c-2.03-2.03-3.63-4.39-4.79-7.07s-1.74-5.57-1.74-8.65.58-5.97 1.74-8.65 2.76-5.04 4.79-7.07c1.99-2.03 4.33-3.62 7.02-4.76 2.68-1.14 5.57-1.71 8.65-1.71s5.93.58 8.65 1.74c1.38.58 2.67 1.29 3.89 2.12 1.21.83 2.35 1.78 3.4 2.83.47.51.7 1.09.68 1.74s-.26 1.2-.73 1.63c-.47.47-1.03.71-1.69.71s-1.22-.24-1.69-.71c-.83-.83-1.72-1.59-2.67-2.26-.94-.67-1.96-1.22-3.05-1.66-2.14-.91-4.41-1.36-6.8-1.36s-4.64.45-6.75 1.36c-2.1.91-3.95 2.16-5.55 3.75-1.6 1.56-2.85 3.4-3.75 5.52-.91 2.12-1.36 4.38-1.36 6.77s.45 4.65 1.36 6.77 2.16 3.96 3.75 5.52c1.6 1.6 3.45 2.85 5.55 3.75 2.1.91 4.35 1.36 6.75 1.36s4.66-.45 6.8-1.36c.94-.4 1.83-.87 2.67-1.41.83-.54 1.61-1.14 2.34-1.8v-9.96h-10.77c-.69 0-1.26-.23-1.71-.68s-.68-1.02-.68-1.71c0-.65.23-1.21.68-1.66s1.02-.68 1.71-.68h13.17c.69 0 1.26.23 1.71.68s.68 1.01.68 1.66v13.33c0 .73-.25 1.31-.76 1.74-2.07 2.1-4.46 3.74-7.18 4.9s-5.6 1.74-8.65 1.74-5.97-.57-8.65-1.71-5.02-2.73-7.02-4.76z"/>
   <path class="cls-2" d="m236.06 71.64c0 1.05.2 2.02.6 2.91s.92 1.68 1.58 2.37c.69.69 1.48 1.22 2.37 1.61.89.38 1.86.57 2.91.57s2.02-.19 2.91-.57 1.68-.92 2.37-1.61 1.22-1.48 1.61-2.37c.38-.89.57-1.86.57-2.91v-19.7c0-.65.24-1.21.71-1.69.47-.47 1.03-.71 1.69-.71s1.22.24 1.69.71.71 1.03.71 1.69v19.7c0 1.71-.32 3.3-.95 4.79-.64 1.49-1.52 2.77-2.64 3.86-1.09 1.13-2.38 2-3.86 2.64-1.49.63-3.08.95-4.79.95s-3.29-.32-4.76-.95-2.77-1.51-3.89-2.64c-1.12-1.09-2-2.38-2.64-3.86-.64-1.49-.95-3.08-.95-4.79v-19.7c0-.65.24-1.21.71-1.69.47-.47 1.03-.71 1.69-.71.69 0 1.26.24 1.71.71s.68 1.03.68 1.69v19.7z"/>
   <path class="cls-2" d="m261.91 83.67c-.47-.18-.83-.47-1.09-.87-.25-.4-.38-.83-.38-1.31 0-.36.05-.67.16-.92l3.59-8.71c0-.07.02-.11.05-.11l8.49-20.73c.18-.47.48-.83.9-1.09.42-.25.86-.38 1.33-.38.33 0 .62.05.87.16.62.25 1.05.69 1.31 1.31l12.13 29.55c.11.25.16.56.16.92 0 .47-.13.91-.38 1.31s-.62.69-1.09.87c-.25.11-.56.16-.93.16-.47 0-.91-.13-1.31-.38s-.69-.62-.87-1.09l-2.99-7.24h-13.87l-2.99 7.24c-.18.47-.47.83-.87 1.09-.4.25-.83.38-1.31.38-.33 0-.63-.05-.92-.16zm8.05-13.33h9.96l-4.95-12.13z"/>
   <path class="cls-2" d="m320.62 60.54c0 1.52-.29 2.96-.87 4.3s-1.36 2.5-2.34 3.48c-1.41 1.41-3.12 2.38-5.11 2.88l7.62 8.71c.44.51.63 1.09.6 1.74-.04.65-.31 1.2-.82 1.63-.51.44-1.09.63-1.74.6-.65-.04-1.2-.31-1.63-.82l-10.07-11.54h-5.71v9.96c0 .69-.24 1.26-.71 1.71s-1.03.68-1.69.68c-.69 0-1.26-.23-1.71-.68s-.68-1.02-.68-1.71v-29.55c0-.65.23-1.21.68-1.69.45-.47 1.02-.71 1.71-.71h11.48c1.52 0 2.95.29 4.27.87s2.49 1.38 3.51 2.39c.98.98 1.76 2.13 2.34 3.46.58 1.32.87 2.75.87 4.27zm-6.64 4.41c.58-.58 1.03-1.24 1.36-1.99.33-.74.49-1.55.49-2.42s-.16-1.63-.49-2.39-.78-1.41-1.36-1.96c-.54-.58-1.2-1.03-1.96-1.36s-1.56-.49-2.39-.49h-9.09v12.41h9.09c1.78 0 3.23-.6 4.35-1.8z"/>
   <path class="cls-2" d="m329.98 83.88c-.65 0-1.22-.24-1.69-.71s-.71-1.03-.71-1.69v-29.55c0-.65.24-1.21.71-1.69.47-.47 1.03-.71 1.69-.71h10.61c2.39 0 4.63.44 6.69 1.33 2.07.89 3.88 2.11 5.44 3.67s2.78 3.37 3.67 5.44 1.33 4.3 1.33 6.69-.44 4.62-1.33 6.69-2.11 3.88-3.67 5.44-3.37 2.79-5.44 3.7-4.3 1.36-6.69 1.36h-10.61zm19.37-25.95c-1.16-1.12-2.48-2-3.94-2.64-1.47-.63-3.07-.95-4.82-.95h-8.22v24.76h8.22c1.74 0 3.35-.33 4.84-.98s2.79-1.54 3.92-2.67 2-2.43 2.64-3.92c.63-1.49.95-3.1.95-4.84s-.32-3.35-.95-4.82-1.51-2.78-2.64-3.94z"/>
   <path class="cls-2" d="m367.19 83.88c-.65 0-1.22-.24-1.69-.71s-.71-1.03-.71-1.69v-29.55c0-.65.24-1.21.71-1.69.47-.47 1.03-.71 1.69-.71.69 0 1.26.24 1.71.71s.68 1.03.68 1.69v29.55c0 .65-.23 1.22-.68 1.69s-1.03.71-1.71.71z"/>
   <path class="cls-2" d="m377.37 83.67c-.47-.18-.83-.47-1.09-.87-.25-.4-.38-.83-.38-1.31 0-.36.05-.67.16-.92l3.59-8.71c0-.07.02-.11.05-.11l8.49-20.73c.18-.47.48-.83.9-1.09.42-.25.86-.38 1.33-.38.33 0 .62.05.87.16.62.25 1.05.69 1.31 1.31l12.13 29.55c.11.25.16.56.16.92 0 .47-.13.91-.38 1.31s-.62.69-1.09.87c-.25.11-.56.16-.93.16-.47 0-.91-.13-1.31-.38s-.69-.62-.87-1.09l-2.99-7.24h-13.87l-2.99 7.24c-.18.47-.47.83-.87 1.09-.4.25-.83.38-1.31.38-.33 0-.63-.05-.92-.16zm8.05-13.33h9.96l-4.95-12.13z"/>
   <path class="cls-2" d="m413.61 83.88c-.65 0-1.22-.24-1.69-.71s-.71-1.03-.71-1.69v-29.55c0-.62.17-1.12.52-1.5.34-.38.66-.63.95-.73.54-.25 1.09-.3 1.63-.14s.96.5 1.25 1.01l15.34 23.02v-21.66c0-.65.24-1.21.71-1.69.47-.47 1.03-.71 1.69-.71s1.22.24 1.69.71.71 1.03.71 1.69v29.55c-.04.47-.15.93-.33 1.39-.18.45-.64.75-1.36.9-.51.07-1.02.04-1.52-.11-.51-.14-.91-.44-1.2-.87l-15.29-22.96v21.66c0 .65-.24 1.22-.71 1.69s-1.03.71-1.69.71z"/>
   <path class="cls-2" d="m445.71 83.88c-.65 0-1.22-.24-1.69-.71s-.71-1.03-.71-1.69v-29.55c0-.65.24-1.21.71-1.69.47-.47 1.03-.71 1.69-.71h17.03c.65 0 1.21.24 1.69.71.47.47.71 1.03.71 1.69s-.24 1.22-.71 1.69-1.03.71-1.69.71h-14.64v9.09h11.26c.69 0 1.26.23 1.71.68s.68 1.01.68 1.66c0 .69-.23 1.26-.68 1.71s-1.02.68-1.71.68h-11.26v10.94h14.64c.65 0 1.21.23 1.69.68.47.45.71 1.02.71 1.71 0 .65-.24 1.22-.71 1.69s-1.03.71-1.69.71z"/>
   <path class="cls-2" d="m473.41 52.33c.98-.83 2.11-1.5 3.4-2.01s2.67-.76 4.16-.76c1.05 0 2.04.13 2.97.38.92.25 1.8.6 2.64 1.03 1.78.94 3.14 2.25 4.08 3.92.33.58.4 1.19.22 1.82-.18.64-.56 1.12-1.14 1.44-.58.33-1.19.4-1.82.22-.64-.18-1.12-.56-1.44-1.14-.44-.8-1.16-1.49-2.18-2.07-.47-.25-.99-.45-1.55-.6-.56-.14-1.15-.22-1.77-.22-1.78 0-3.25.53-4.41 1.58-1.09.91-1.63 2.05-1.63 3.43 0 .91.19 1.65.57 2.23s.87 1.05 1.47 1.41 1.3.64 2.09.84c.8.2 1.6.39 2.39.57 1.31.25 2.58.55 3.81.9s2.34.85 3.32 1.52 1.77 1.58 2.37 2.72.9 2.68.9 4.6c0 1.38-.29 2.67-.87 3.86-.58 1.2-1.4 2.23-2.45 3.1-.98.87-2.11 1.55-3.4 2.04s-2.68.73-4.16.73c-1.16 0-2.26-.12-3.29-.35-1.03-.24-1.99-.55-2.86-.95-.98-.47-1.83-1.04-2.56-1.71s-1.34-1.42-1.85-2.26c-.33-.58-.4-1.19-.22-1.82s.56-1.12 1.14-1.44c.58-.33 1.19-.41 1.82-.24.63.16 1.12.54 1.44 1.12.51.91 1.27 1.6 2.29 2.07 1.09.54 2.45.82 4.08.82.87 0 1.69-.14 2.45-.41s1.41-.64 1.96-1.12c.51-.47.92-1 1.22-1.58.31-.58.46-1.2.46-1.85 0-.94-.19-1.7-.57-2.29-.38-.58-.88-1.04-1.5-1.39-.62-.34-1.32-.63-2.09-.84-.78-.22-1.59-.4-2.42-.54-1.31-.29-2.58-.6-3.81-.93s-2.33-.83-3.29-1.52-1.74-1.61-2.34-2.75-.9-2.66-.9-4.54c0-1.38.29-2.67.87-3.86.58-1.2 1.38-2.25 2.39-3.16z"/>
   <path class="cls-2" d="m186.06 139.59c-.47-.18-.83-.48-1.09-.9-.25-.42-.38-.86-.38-1.33 0-.29.05-.58.16-.87l4.84-11.7c0-.07.02-.13.05-.16l11.43-27.8c.18-.47.48-.83.9-1.09.42-.25.86-.38 1.33-.38.33 0 .62.05.87.16.65.29 1.09.73 1.31 1.31l16.27 39.67c.14.29.22.6.22.93 0 .47-.14.91-.41 1.31s-.63.69-1.06.87c-.25.11-.56.16-.93.16-1.02 0-1.76-.49-2.23-1.47l-4.19-10.28h-19.75l-4.19 10.28c-.47.98-1.22 1.47-2.23 1.47-.33 0-.63-.05-.92-.16zm9.3-16.38h15.83l-7.94-19.21z"/>
   <path class="cls-2" d="m230.35 140.44c-.65 0-1.22-.24-1.69-.71s-.71-1.03-.71-1.69v-29.55c0-.62.17-1.12.52-1.5.34-.38.66-.63.95-.73.54-.25 1.09-.3 1.63-.14s.96.5 1.25 1.01l15.34 23.02v-21.66c0-.65.24-1.21.71-1.69.47-.47 1.03-.71 1.69-.71s1.22.24 1.69.71.71 1.03.71 1.69v29.55c-.04.47-.15.93-.33 1.39-.18.45-.64.75-1.36.9-.51.07-1.02.04-1.52-.11-.51-.14-.91-.44-1.2-.87l-15.29-22.96v21.66c0 .65-.24 1.22-.71 1.69s-1.03.71-1.69.71z"/>
   <path class="cls-2" d="m276.11 140.44c-2.39 0-4.63-.45-6.69-1.36-2.07-.91-3.88-2.14-5.44-3.7s-2.78-3.37-3.67-5.44-1.33-4.3-1.33-6.69.44-4.63 1.33-6.69c.89-2.07 2.11-3.88 3.67-5.44s3.37-2.78 5.44-3.67 4.3-1.33 6.69-1.33 4.55.45 6.69 1.36c1.05.43 2.05.98 2.99 1.63s1.81 1.38 2.61 2.18c.47.51.71 1.09.71 1.74s-.25 1.2-.76 1.63c-.47.47-1.03.71-1.69.71s-1.22-.24-1.69-.71c-1.2-1.23-2.54-2.18-4.03-2.83-1.52-.62-3.14-.93-4.84-.93s-3.35.32-4.82.95c-1.47.64-2.78 1.51-3.94 2.64-1.12 1.16-2 2.48-2.64 3.94-.63 1.47-.95 3.07-.95 4.82s.32 3.36.95 4.84c.63 1.49 1.51 2.79 2.64 3.92 1.16 1.12 2.48 2.01 3.94 2.67 1.47.65 3.07.98 4.82.98.87 0 1.71-.09 2.53-.27s1.59-.42 2.31-.71c1.56-.65 2.9-1.58 4.03-2.77.47-.47 1.03-.72 1.69-.73.65-.02 1.21.21 1.69.68.51.47.76 1.03.76 1.69s-.24 1.22-.71 1.69c-1.6 1.63-3.46 2.92-5.6 3.86-2.14.91-4.37 1.36-6.69 1.36z"/>
   <path class="cls-2" d="m298.26 140.44c-.65 0-1.22-.24-1.69-.71s-.71-1.03-.71-1.69v-29.55c0-.65.24-1.21.71-1.69.47-.47 1.03-.71 1.69-.71h17.03c.65 0 1.21.24 1.69.71.47.47.71 1.03.71 1.69s-.24 1.22-.71 1.69-1.03.71-1.69.71h-14.64v9.09h11.26c.69 0 1.26.23 1.71.68s.68 1.01.68 1.66c0 .69-.23 1.26-.68 1.71s-1.02.68-1.71.68h-11.26v10.94h14.64c.65 0 1.21.23 1.69.68.47.45.71 1.02.71 1.71 0 .65-.24 1.22-.71 1.69s-1.03.71-1.69.71z"/>
   <path class="cls-2" d="m325.95 108.88c.98-.83 2.11-1.5 3.4-2.01s2.67-.76 4.16-.76c1.05 0 2.04.13 2.97.38.92.25 1.8.6 2.64 1.03 1.78.94 3.14 2.25 4.08 3.92.33.58.4 1.19.22 1.82-.18.64-.56 1.12-1.14 1.44-.58.33-1.19.4-1.82.22-.64-.18-1.12-.56-1.44-1.14-.44-.8-1.16-1.49-2.18-2.07-.47-.25-.99-.45-1.55-.6-.56-.14-1.15-.22-1.77-.22-1.78 0-3.25.53-4.41 1.58-1.09.91-1.63 2.05-1.63 3.43 0 .91.19 1.65.57 2.23s.87 1.05 1.47 1.41 1.3.64 2.09.84c.8.2 1.6.39 2.39.57 1.31.25 2.58.55 3.81.9s2.34.85 3.32 1.52 1.77 1.58 2.37 2.72.9 2.68.9 4.6c0 1.38-.29 2.67-.87 3.86-.58 1.2-1.4 2.23-2.45 3.1-.98.87-2.11 1.55-3.4 2.04s-2.68.73-4.16.73c-1.16 0-2.26-.12-3.29-.35-1.03-.24-1.99-.55-2.86-.95-.98-.47-1.83-1.04-2.56-1.71s-1.34-1.42-1.85-2.26c-.33-.58-.4-1.19-.22-1.82s.56-1.12 1.14-1.44c.58-.33 1.19-.41 1.82-.24.63.16 1.12.54 1.44 1.12.51.91 1.27 1.6 2.29 2.07 1.09.54 2.45.82 4.08.82.87 0 1.69-.14 2.45-.41s1.41-.64 1.96-1.12c.51-.47.92-1 1.22-1.58.31-.58.46-1.2.46-1.85 0-.94-.19-1.7-.57-2.29-.38-.58-.88-1.04-1.5-1.39-.62-.34-1.32-.63-2.09-.84-.78-.22-1.59-.4-2.42-.54-1.31-.29-2.58-.6-3.81-.93s-2.33-.83-3.29-1.52-1.74-1.61-2.34-2.75-.9-2.66-.9-4.54c0-1.38.29-2.67.87-3.86.58-1.2 1.38-2.25 2.39-3.16z"/>
   <path class="cls-2" d="m348.21 108.5c0-.65.24-1.21.71-1.69.47-.47 1.03-.71 1.69-.71h18.66c.65 0 1.21.24 1.69.71.47.47.71 1.03.71 1.69 0 .69-.24 1.26-.71 1.71s-1.03.68-1.69.68h-6.96v27.15c0 .69-.23 1.26-.68 1.71s-1.03.68-1.71.68c-.65 0-1.22-.23-1.69-.68s-.71-1.02-.71-1.71v-27.15h-6.91c-.65 0-1.22-.23-1.69-.68s-.71-1.02-.71-1.71z"/>
   <path class="cls-2" d="m403.05 117.1c0 1.52-.29 2.96-.87 4.3s-1.36 2.5-2.34 3.48c-1.41 1.41-3.12 2.38-5.11 2.88l7.62 8.71c.44.51.63 1.09.6 1.74-.04.65-.31 1.2-.82 1.63-.51.44-1.09.63-1.74.6-.65-.04-1.2-.31-1.63-.82l-10.07-11.54h-5.71v9.96c0 .69-.24 1.26-.71 1.71s-1.03.68-1.69.68c-.69 0-1.26-.23-1.71-.68s-.68-1.02-.68-1.71v-29.55c0-.65.23-1.21.68-1.69.45-.47 1.02-.71 1.71-.71h11.48c1.52 0 2.95.29 4.27.87s2.49 1.38 3.51 2.39c.98.98 1.76 2.13 2.34 3.46.58 1.32.87 2.75.87 4.27zm-6.64 4.41c.58-.58 1.03-1.24 1.36-1.99.33-.74.49-1.55.49-2.42s-.16-1.63-.49-2.39-.78-1.41-1.36-1.96c-.54-.58-1.2-1.03-1.96-1.36s-1.56-.49-2.39-.49h-9.09v12.41h9.09c1.78 0 3.23-.6 4.35-1.8z"/>
   <path class="cls-2" d="m410.18 140.22c-.47-.18-.83-.47-1.09-.87-.25-.4-.38-.83-.38-1.31 0-.36.05-.67.16-.92l3.59-8.71c0-.07.02-.11.05-.11l8.49-20.73c.18-.47.48-.83.9-1.09.42-.25.86-.38 1.33-.38.33 0 .62.05.87.16.62.25 1.05.69 1.31 1.31l12.13 29.55c.11.25.16.56.16.92 0 .47-.13.91-.38 1.31s-.62.69-1.09.87c-.25.11-.56.16-.93.16-.47 0-.91-.13-1.31-.38s-.69-.62-.87-1.09l-2.99-7.24h-13.87l-2.99 7.24c-.18.47-.47.83-.87 1.09-.4.25-.83.38-1.31.38-.33 0-.63-.05-.92-.16zm8.05-13.33h9.96l-4.95-12.13z"/>
   <path class="cls-2" d="m446.42 140.44c-.65 0-1.22-.24-1.69-.71s-.71-1.03-.71-1.69v-29.55c0-.65.24-1.21.71-1.69.47-.47 1.03-.71 1.69-.71s1.21.24 1.69.71c.47.47.71 1.03.71 1.69v27.15h11.48c.69 0 1.26.23 1.71.68s.68 1.02.68 1.71c0 .65-.23 1.22-.68 1.69s-1.02.71-1.71.71h-13.87z"/>
   <path class="cls-2" d="m471.07 140.44c-.65 0-1.22-.24-1.69-.71s-.71-1.03-.71-1.69v-29.55c0-.65.24-1.21.71-1.69.47-.47 1.03-.71 1.69-.71h17.03c.65 0 1.21.24 1.69.71.47.47.71 1.03.71 1.69s-.24 1.22-.71 1.69-1.03.71-1.69.71h-14.64v9.09h11.26c.69 0 1.26.23 1.71.68s.68 1.01.68 1.66c0 .69-.23 1.26-.68 1.71s-1.02.68-1.71.68h-11.26v10.94h14.64c.65 0 1.21.23 1.69.68.47.45.71 1.02.71 1.71 0 .65-.24 1.22-.71 1.69s-1.03.71-1.69.71z"/>
   <path class="cls-2" d="m498.76 108.88c.98-.83 2.11-1.5 3.4-2.01s2.67-.76 4.16-.76c1.05 0 2.04.13 2.97.38.92.25 1.8.6 2.64 1.03 1.78.94 3.14 2.25 4.08 3.92.33.58.4 1.19.22 1.82-.18.64-.56 1.12-1.14 1.44-.58.33-1.19.4-1.82.22-.64-.18-1.12-.56-1.44-1.14-.44-.8-1.16-1.49-2.18-2.07-.47-.25-.99-.45-1.55-.6-.56-.14-1.15-.22-1.77-.22-1.78 0-3.25.53-4.41 1.58-1.09.91-1.63 2.05-1.63 3.43 0 .91.19 1.65.57 2.23s.87 1.05 1.47 1.41 1.3.64 2.09.84c.8.2 1.6.39 2.39.57 1.31.25 2.58.55 3.81.9s2.34.85 3.32 1.52 1.77 1.58 2.37 2.72.9 2.68.9 4.6c0 1.38-.29 2.67-.87 3.86-.58 1.2-1.4 2.23-2.45 3.1-.98.87-2.11 1.55-3.4 2.04s-2.68.73-4.16.73c-1.16 0-2.26-.12-3.29-.35-1.03-.24-1.99-.55-2.86-.95-.98-.47-1.83-1.04-2.56-1.71s-1.34-1.42-1.85-2.26c-.33-.58-.4-1.19-.22-1.82s.56-1.12 1.14-1.44c.58-.33 1.19-.41 1.82-.24.63.16 1.12.54 1.44 1.12.51.91 1.27 1.6 2.29 2.07 1.09.54 2.45.82 4.08.82.87 0 1.69-.14 2.45-.41s1.41-.64 1.96-1.12c.51-.47.92-1 1.22-1.58.31-.58.46-1.2.46-1.85 0-.94-.19-1.7-.57-2.29-.38-.58-.88-1.04-1.5-1.39-.62-.34-1.32-.63-2.09-.84-.78-.22-1.59-.4-2.42-.54-1.31-.29-2.58-.6-3.81-.93s-2.33-.83-3.29-1.52-1.74-1.61-2.34-2.75-.9-2.66-.9-4.54c0-1.38.29-2.67.87-3.86.58-1.2 1.38-2.25 2.39-3.16z"/>
  </g>
 </g>
</svg>
