<?xml version="1.0" encoding="UTF-8"?>
<svg id="Layer_2" data-name="Layer 2" xmlns="http://www.w3.org/2000/svg" viewBox="0 0 294.17 378.39">
  <defs>
    <style>
      .cls-1 {
        fill: #48b6a3;
      }

      .cls-1, .cls-2, .cls-3, .cls-4, .cls-5 {
        stroke-width: 0px;
      }

      .cls-2 {
        fill: #1e2c19;
      }

      .cls-3 {
        fill: #00a796;
      }

      .cls-4 {
        fill: #fff;
      }

      .cls-5 {
        fill: #f29300;
      }
    </style>
  </defs>
  <g id="Layer_1-2" data-name="Layer 1">
    <g>
      <g>
        <path class="cls-2" d="M17.23,330.32c-1.8-1.8-3.21-3.88-4.23-6.26-1.03-2.37-1.54-4.92-1.54-7.65s.51-5.28,1.54-7.65c1.03-2.37,2.44-4.46,4.23-6.26,1.76-1.8,3.83-3.2,6.21-4.21,2.37-1.01,4.92-1.52,7.65-1.52s5.25.51,7.65,1.54c1.22.51,2.37,1.14,3.44,1.88,1.07.74,2.08,1.57,3.01,2.5.42.45.62.96.6,1.54-.02.58-.23,1.06-.65,1.44-.42.42-.91.63-1.49.63s-1.08-.21-1.49-.63c-.74-.74-1.52-1.4-2.36-2-.83-.59-1.73-1.08-2.69-1.47-1.89-.8-3.9-1.2-6.02-1.2s-4.11.4-5.97,1.2c-1.86.8-3.5,1.91-4.91,3.32-1.41,1.38-2.52,3.01-3.32,4.88-.8,1.88-1.2,3.87-1.2,5.99s.4,4.11,1.2,5.99c.8,1.88,1.91,3.51,3.32,4.88,1.41,1.41,3.05,2.52,4.91,3.32,1.86.8,3.85,1.2,5.97,1.2s4.12-.4,6.02-1.2c.83-.35,1.62-.77,2.36-1.25.74-.48,1.43-1.01,2.07-1.59v-8.81h-9.53c-.61,0-1.12-.2-1.52-.6-.4-.4-.6-.91-.6-1.52,0-.58.2-1.07.6-1.47s.91-.6,1.52-.6h11.65c.61,0,1.11.2,1.52.6.4.4.6.89.6,1.47v11.79c0,.64-.22,1.15-.67,1.54-1.83,1.86-3.95,3.3-6.35,4.33-2.41,1.03-4.96,1.54-7.65,1.54s-5.28-.51-7.65-1.52c-2.37-1.01-4.44-2.41-6.21-4.21Z"/>
        <path class="cls-2" d="M56.98,321.61c0,.93.18,1.79.53,2.57.35.79.82,1.48,1.4,2.09.61.61,1.31,1.08,2.09,1.42.79.34,1.64.51,2.57.51s1.79-.17,2.57-.51c.79-.34,1.48-.81,2.09-1.42.61-.61,1.08-1.31,1.42-2.09.34-.79.51-1.64.51-2.57v-17.42c0-.58.21-1.07.63-1.49.42-.42.91-.63,1.49-.63s1.07.21,1.49.63c.42.42.63.91.63,1.49v17.42c0,1.51-.28,2.92-.84,4.23-.56,1.32-1.34,2.45-2.33,3.42-.96,1-2.1,1.77-3.42,2.33-1.32.56-2.73.84-4.23.84s-2.91-.28-4.21-.84c-1.3-.56-2.45-1.34-3.44-2.33-.99-.96-1.77-2.1-2.33-3.42-.56-1.32-.84-2.73-.84-4.23v-17.42c0-.58.21-1.07.63-1.49.42-.42.91-.63,1.49-.63.61,0,1.11.21,1.52.63.4.42.6.91.6,1.49v17.42Z"/>
        <path class="cls-2" d="M79.84,332.25c-.42-.16-.74-.42-.96-.77-.23-.35-.34-.74-.34-1.16,0-.32.05-.59.14-.82l3.18-7.7c0-.06.02-.1.05-.1l7.51-18.33c.16-.42.42-.74.79-.96.37-.22.76-.34,1.18-.34.29,0,.55.05.77.14.55.22.93.61,1.16,1.15l10.73,26.13c.1.23.14.5.14.82,0,.42-.11.8-.34,1.16-.22.35-.55.61-.96.77-.23.1-.5.14-.82.14-.42,0-.8-.11-1.15-.34-.35-.22-.61-.55-.77-.96l-2.65-6.4h-12.27l-2.65,6.4c-.16.42-.42.74-.77.96-.35.22-.74.34-1.16.34-.29,0-.56-.05-.82-.14ZM86.96,320.46h8.81l-4.38-10.73-4.43,10.73Z"/>
        <path class="cls-2" d="M131.76,311.79c0,1.35-.26,2.62-.77,3.8-.51,1.19-1.2,2.21-2.07,3.08-1.25,1.25-2.76,2.1-4.52,2.55l6.74,7.7c.39.45.56.96.53,1.54-.03.58-.27,1.06-.72,1.44-.45.39-.96.56-1.54.53-.58-.03-1.06-.27-1.44-.72l-8.9-10.2h-5.05v8.81c0,.61-.21,1.12-.63,1.52-.42.4-.91.6-1.49.6-.61,0-1.12-.2-1.52-.6-.4-.4-.6-.91-.6-1.52v-26.13c0-.58.2-1.07.6-1.49.4-.42.91-.63,1.52-.63h10.15c1.35,0,2.61.26,3.78.77,1.17.51,2.21,1.22,3.1,2.12.87.87,1.56,1.89,2.07,3.06.51,1.17.77,2.43.77,3.78ZM125.89,315.69c.51-.51.91-1.1,1.2-1.76.29-.66.43-1.37.43-2.14s-.14-1.44-.43-2.12-.69-1.25-1.2-1.73c-.48-.51-1.06-.91-1.73-1.2-.67-.29-1.38-.43-2.12-.43h-8.04v10.97h8.04c1.57,0,2.86-.53,3.85-1.59Z"/>
        <path class="cls-2" d="M140.04,332.44c-.58,0-1.08-.21-1.49-.63-.42-.42-.63-.91-.63-1.49v-26.13c0-.58.21-1.07.63-1.49.42-.42.91-.63,1.49-.63h9.38c2.12,0,4.09.39,5.92,1.18,1.83.79,3.43,1.87,4.81,3.25,1.38,1.38,2.46,2.98,3.25,4.81.79,1.83,1.18,3.8,1.18,5.92s-.39,4.09-1.18,5.92c-.79,1.83-1.87,3.43-3.25,4.81-1.38,1.38-2.98,2.47-4.81,3.27-1.83.8-3.8,1.2-5.92,1.2h-9.38ZM157.17,309.48c-1.03-.99-2.19-1.77-3.49-2.33-1.3-.56-2.72-.84-4.26-.84h-7.27v21.9h7.27c1.54,0,2.97-.29,4.28-.87,1.31-.58,2.47-1.36,3.46-2.36.99-.99,1.77-2.15,2.33-3.47.56-1.32.84-2.74.84-4.28s-.28-2.96-.84-4.26c-.56-1.3-1.34-2.46-2.33-3.49Z"/>
        <path class="cls-2" d="M172.95,332.44c-.58,0-1.08-.21-1.49-.63-.42-.42-.63-.91-.63-1.49v-26.13c0-.58.21-1.07.63-1.49.42-.42.91-.63,1.49-.63.61,0,1.11.21,1.52.63.4.42.6.91.6,1.49v26.13c0,.58-.2,1.08-.6,1.49-.4.42-.91.63-1.52.63Z"/>
        <path class="cls-2" d="M181.95,332.25c-.42-.16-.74-.42-.96-.77-.23-.35-.34-.74-.34-1.16,0-.32.05-.59.14-.82l3.18-7.7c0-.06.02-.1.05-.1l7.51-18.33c.16-.42.42-.74.79-.96.37-.22.76-.34,1.18-.34.29,0,.55.05.77.14.55.22.93.61,1.16,1.15l10.73,26.13c.1.23.14.5.14.82,0,.42-.11.8-.34,1.16-.22.35-.55.61-.96.77-.23.1-.5.14-.82.14-.42,0-.8-.11-1.15-.34-.35-.22-.61-.55-.77-.96l-2.65-6.4h-12.27l-2.65,6.4c-.16.42-.42.74-.77.96-.35.22-.74.34-1.16.34-.29,0-.56-.05-.82-.14ZM189.07,320.46h8.81l-4.38-10.73-4.43,10.73Z"/>
        <path class="cls-2" d="M214,332.44c-.58,0-1.08-.21-1.49-.63-.42-.42-.63-.91-.63-1.49v-26.13c0-.55.15-.99.46-1.32.3-.34.59-.55.84-.65.48-.22.96-.26,1.44-.12.48.14.85.44,1.11.89l13.57,20.36v-19.15c0-.58.21-1.07.63-1.49.42-.42.91-.63,1.49-.63s1.07.21,1.49.63c.42.42.63.91.63,1.49v26.13c-.03.42-.13.83-.29,1.23-.16.4-.56.67-1.2.79-.45.06-.9.03-1.35-.1-.45-.13-.8-.39-1.06-.77l-13.52-20.31v19.15c0,.58-.21,1.08-.63,1.49-.42.42-.91.63-1.49.63Z"/>
        <path class="cls-2" d="M242.39,332.44c-.58,0-1.08-.21-1.49-.63-.42-.42-.63-.91-.63-1.49v-26.13c0-.58.21-1.07.63-1.49.42-.42.91-.63,1.49-.63h15.06c.58,0,1.07.21,1.49.63.42.42.63.91.63,1.49s-.21,1.08-.63,1.49-.91.63-1.49.63h-12.95v8.04h9.96c.61,0,1.11.2,1.52.6.4.4.6.89.6,1.47,0,.61-.2,1.12-.6,1.52s-.91.6-1.52.6h-9.96v9.67h12.95c.58,0,1.07.2,1.49.6.42.4.63.91.63,1.52,0,.58-.21,1.08-.63,1.49s-.91.63-1.49.63h-15.06Z"/>
        <path class="cls-2" d="M266.89,304.53c.87-.74,1.87-1.33,3.01-1.78,1.14-.45,2.37-.67,3.68-.67.93,0,1.8.11,2.62.34.82.23,1.6.53,2.33.91,1.57.83,2.77,1.99,3.61,3.47.29.51.35,1.05.19,1.61-.16.56-.5.99-1.01,1.28-.51.29-1.05.35-1.61.19-.56-.16-.99-.5-1.28-1.01-.39-.71-1.03-1.32-1.92-1.83-.42-.22-.87-.4-1.37-.53-.5-.13-1.02-.19-1.56-.19-1.57,0-2.87.47-3.9,1.4-.96.8-1.44,1.81-1.44,3.03,0,.8.17,1.46.51,1.97.34.51.77.93,1.3,1.25.53.32,1.15.57,1.85.75.71.18,1.41.35,2.12.51,1.15.22,2.28.49,3.37.79,1.09.31,2.07.75,2.94,1.35.87.59,1.56,1.4,2.09,2.41.53,1.01.79,2.37.79,4.07,0,1.22-.26,2.36-.77,3.42-.51,1.06-1.24,1.97-2.17,2.74-.87.77-1.87,1.37-3.01,1.8-1.14.43-2.37.65-3.68.65-1.03,0-2-.1-2.91-.31-.91-.21-1.76-.49-2.53-.84-.87-.42-1.62-.92-2.26-1.52-.64-.59-1.19-1.26-1.64-2-.29-.51-.35-1.05-.19-1.61.16-.56.5-.99,1.01-1.28.51-.29,1.05-.36,1.61-.22.56.14.99.47,1.28.99.45.8,1.12,1.41,2.02,1.83.96.48,2.17.72,3.61.72.77,0,1.49-.12,2.17-.36s1.25-.57,1.73-.99c.45-.42.81-.88,1.08-1.4.27-.51.41-1.06.41-1.64,0-.83-.17-1.51-.51-2.02-.34-.51-.78-.92-1.32-1.23-.55-.3-1.16-.55-1.85-.75-.69-.19-1.4-.35-2.14-.48-1.16-.26-2.28-.53-3.37-.82-1.09-.29-2.06-.74-2.91-1.35-.85-.61-1.54-1.42-2.07-2.43-.53-1.01-.79-2.35-.79-4.02,0-1.22.26-2.36.77-3.42.51-1.06,1.22-1.99,2.12-2.79Z"/>
        <path class="cls-2" d="M1.3,378.24c-.42-.16-.74-.43-.96-.79-.22-.37-.34-.76-.34-1.18,0-.26.05-.51.14-.77l4.28-10.35c0-.06.02-.11.05-.14l10.11-24.59c.16-.42.42-.74.79-.96.37-.22.76-.34,1.18-.34.29,0,.55.05.77.14.58.26.96.64,1.16,1.16l14.39,35.08c.13.26.19.53.19.82,0,.42-.12.8-.36,1.15-.24.35-.55.61-.94.77-.23.1-.5.14-.82.14-.9,0-1.56-.43-1.97-1.3l-3.71-9.1H7.8l-3.71,9.1c-.42.87-1.08,1.3-1.97,1.3-.29,0-.56-.05-.82-.14ZM9.53,363.76h14l-7.03-16.99-6.98,16.99Z"/>
        <path class="cls-2" d="M40.47,374.78c-.58,0-1.08-.21-1.49-.63-.42-.42-.63-.91-.63-1.49v-26.13c0-.55.15-.99.46-1.32.3-.34.59-.55.84-.65.48-.22.96-.26,1.44-.12.48.14.85.44,1.11.89l13.57,20.36v-19.15c0-.58.21-1.07.63-1.49.42-.42.91-.63,1.49-.63s1.07.21,1.49.63c.42.42.63.91.63,1.49v26.13c-.03.42-.13.83-.29,1.23-.16.4-.56.67-1.2.79-.45.06-.9.03-1.35-.1-.45-.13-.8-.39-1.06-.77l-13.52-20.31v19.15c0,.58-.21,1.08-.63,1.49-.42.42-.91.63-1.49.63Z"/>
        <path class="cls-2" d="M80.94,374.78c-2.12,0-4.09-.4-5.92-1.2-1.83-.8-3.43-1.89-4.81-3.27-1.38-1.38-2.46-2.98-3.25-4.81-.79-1.83-1.18-3.8-1.18-5.92s.39-4.09,1.18-5.92c.79-1.83,1.87-3.43,3.25-4.81,1.38-1.38,2.98-2.46,4.81-3.25,1.83-.79,3.8-1.18,5.92-1.18s4.03.4,5.92,1.2c.93.38,1.81.87,2.65,1.44.83.58,1.6,1.22,2.31,1.92.42.45.63.96.63,1.54s-.22,1.06-.67,1.44c-.42.42-.91.63-1.49.63s-1.08-.21-1.49-.63c-1.06-1.09-2.25-1.93-3.56-2.5-1.35-.55-2.78-.82-4.28-.82s-2.96.28-4.26.84c-1.3.56-2.46,1.34-3.49,2.33-.99,1.03-1.77,2.19-2.33,3.49-.56,1.3-.84,2.72-.84,4.26s.28,2.97.84,4.28c.56,1.32,1.34,2.47,2.33,3.47,1.03.99,2.19,1.78,3.49,2.36,1.3.58,2.72.87,4.26.87.77,0,1.52-.08,2.24-.24.72-.16,1.4-.37,2.05-.63,1.38-.58,2.57-1.4,3.56-2.45.42-.42.91-.63,1.49-.65.58-.02,1.07.19,1.49.6.45.42.67.91.67,1.49s-.21,1.08-.63,1.49c-1.41,1.44-3.06,2.58-4.96,3.42-1.89.8-3.87,1.2-5.92,1.2Z"/>
        <path class="cls-2" d="M100.53,374.78c-.58,0-1.08-.21-1.49-.63-.42-.42-.63-.91-.63-1.49v-26.13c0-.58.21-1.07.63-1.49.42-.42.91-.63,1.49-.63h15.06c.58,0,1.07.21,1.49.63.42.42.63.91.63,1.49s-.21,1.08-.63,1.49-.91.63-1.49.63h-12.95v8.04h9.96c.61,0,1.11.2,1.52.6.4.4.6.89.6,1.47,0,.61-.2,1.12-.6,1.52s-.91.6-1.52.6h-9.96v9.67h12.95c.58,0,1.07.2,1.49.6.42.4.63.91.63,1.52,0,.58-.21,1.08-.63,1.49s-.91.63-1.49.63h-15.06Z"/>
        <path class="cls-2" d="M125.02,346.87c.87-.74,1.87-1.33,3.01-1.78,1.14-.45,2.37-.67,3.68-.67.93,0,1.8.11,2.62.34.82.23,1.6.53,2.33.91,1.57.83,2.77,1.99,3.61,3.47.29.51.35,1.05.19,1.61-.16.56-.5.99-1.01,1.28-.51.29-1.05.35-1.61.19-.56-.16-.99-.5-1.28-1.01-.39-.71-1.03-1.32-1.92-1.83-.42-.22-.87-.4-1.37-.53-.5-.13-1.02-.19-1.56-.19-1.57,0-2.87.47-3.9,1.4-.96.8-1.44,1.81-1.44,3.03,0,.8.17,1.46.51,1.97.34.51.77.93,1.3,1.25.53.32,1.15.57,1.85.75.71.18,1.41.35,2.12.51,1.15.22,2.28.49,3.37.79,1.09.31,2.07.75,2.94,1.35.87.59,1.56,1.4,2.09,2.41.53,1.01.79,2.37.79,4.07,0,1.22-.26,2.36-.77,3.42-.51,1.06-1.24,1.97-2.17,2.74-.87.77-1.87,1.37-3.01,1.8-1.14.43-2.37.65-3.68.65-1.03,0-2-.1-2.91-.31-.91-.21-1.76-.49-2.53-.84-.87-.42-1.62-.92-2.26-1.52-.64-.59-1.19-1.26-1.64-2-.29-.51-.35-1.05-.19-1.61.16-.56.5-.99,1.01-1.28.51-.29,1.05-.36,1.61-.22.56.14.99.47,1.28.99.45.8,1.12,1.41,2.02,1.83.96.48,2.17.72,3.61.72.77,0,1.49-.12,2.17-.36s1.25-.57,1.73-.99c.45-.42.81-.88,1.08-1.4.27-.51.41-1.06.41-1.64,0-.83-.17-1.51-.51-2.02-.34-.51-.78-.92-1.32-1.23-.55-.3-1.16-.55-1.85-.75-.69-.19-1.4-.35-2.14-.48-1.16-.26-2.28-.53-3.37-.82-1.09-.29-2.06-.74-2.91-1.35-.85-.61-1.54-1.42-2.07-2.43s-.79-2.35-.79-4.02c0-1.22.26-2.36.77-3.42.51-1.06,1.22-1.99,2.12-2.79Z"/>
        <path class="cls-2" d="M144.71,346.53c0-.58.21-1.07.63-1.49.42-.42.91-.63,1.49-.63h16.51c.58,0,1.07.21,1.49.63.42.42.63.91.63,1.49,0,.61-.21,1.12-.63,1.52-.42.4-.91.6-1.49.6h-6.16v24.01c0,.61-.2,1.12-.6,1.52-.4.4-.91.6-1.52.6-.58,0-1.08-.2-1.49-.6-.42-.4-.63-.91-.63-1.52v-24.01h-6.11c-.58,0-1.08-.2-1.49-.6-.42-.4-.63-.91-.63-1.52Z"/>
        <path class="cls-2" d="M193.21,354.14c0,1.35-.26,2.62-.77,3.8-.51,1.19-1.2,2.21-2.07,3.08-1.25,1.25-2.76,2.1-4.52,2.55l6.74,7.7c.39.45.56.96.53,1.54-.03.58-.27,1.06-.72,1.44-.45.39-.96.56-1.54.53-.58-.03-1.06-.27-1.44-.72l-8.9-10.2h-5.05v8.81c0,.61-.21,1.12-.63,1.52-.42.4-.91.6-1.49.6-.61,0-1.12-.2-1.52-.6-.4-.4-.6-.91-.6-1.52v-26.13c0-.58.2-1.07.6-1.49.4-.42.91-.63,1.52-.63h10.15c1.35,0,2.61.26,3.78.77,1.17.51,2.21,1.22,3.1,2.12.87.87,1.56,1.89,2.07,3.06.51,1.17.77,2.43.77,3.78ZM187.34,358.03c.51-.51.91-1.1,1.2-1.76.29-.66.43-1.37.43-2.14s-.14-1.44-.43-2.12-.69-1.25-1.2-1.73c-.48-.51-1.06-.91-1.73-1.2-.67-.29-1.38-.43-2.12-.43h-8.04v10.97h8.04c1.57,0,2.86-.53,3.85-1.59Z"/>
        <path class="cls-2" d="M199.52,374.59c-.42-.16-.74-.42-.96-.77-.23-.35-.34-.74-.34-1.16,0-.32.05-.59.14-.82l3.18-7.7c0-.06.02-.1.05-.1l7.51-18.33c.16-.42.42-.74.79-.96.37-.22.76-.34,1.18-.34.29,0,.55.05.77.14.55.22.93.61,1.16,1.15l10.73,26.13c.1.23.14.5.14.82,0,.42-.11.8-.34,1.16-.22.35-.55.61-.96.77-.23.1-.5.14-.82.14-.42,0-.8-.11-1.15-.34-.35-.22-.61-.55-.77-.96l-2.65-6.4h-12.27l-2.65,6.4c-.16.42-.42.74-.77.96-.35.22-.74.34-1.16.34-.29,0-.56-.05-.82-.14ZM206.64,362.8h8.81l-4.38-10.73-4.43,10.73Z"/>
        <path class="cls-2" d="M231.57,374.78c-.58,0-1.08-.21-1.49-.63-.42-.42-.63-.91-.63-1.49v-26.13c0-.58.21-1.07.63-1.49.42-.42.91-.63,1.49-.63s1.07.21,1.49.63c.42.42.63.91.63,1.49v24.01h10.15c.61,0,1.11.2,1.52.6.4.4.6.91.6,1.52,0,.58-.2,1.08-.6,1.49-.4.42-.91.63-1.52.63h-12.27Z"/>
        <path class="cls-2" d="M253.37,374.78c-.58,0-1.08-.21-1.49-.63-.42-.42-.63-.91-.63-1.49v-26.13c0-.58.21-1.07.63-1.49.42-.42.91-.63,1.49-.63h15.06c.58,0,1.07.21,1.49.63.42.42.63.91.63,1.49s-.21,1.08-.63,1.49-.91.63-1.49.63h-12.95v8.04h9.96c.61,0,1.11.2,1.52.6.4.4.6.89.6,1.47,0,.61-.2,1.12-.6,1.52s-.91.6-1.52.6h-9.96v9.67h12.95c.58,0,1.07.2,1.49.6.42.4.63.91.63,1.52,0,.58-.21,1.08-.63,1.49s-.91.63-1.49.63h-15.06Z"/>
        <path class="cls-2" d="M277.86,346.87c.87-.74,1.87-1.33,3.01-1.78,1.14-.45,2.37-.67,3.68-.67.93,0,1.8.11,2.62.34.82.23,1.6.53,2.33.91,1.57.83,2.77,1.99,3.61,3.47.29.51.35,1.05.19,1.61-.16.56-.5.99-1.01,1.28-.51.29-1.05.35-1.61.19-.56-.16-.99-.5-1.28-1.01-.39-.71-1.03-1.32-1.92-1.83-.42-.22-.87-.4-1.37-.53-.5-.13-1.02-.19-1.56-.19-1.57,0-2.87.47-3.9,1.4-.96.8-1.44,1.81-1.44,3.03,0,.8.17,1.46.51,1.97.34.51.77.93,1.3,1.25.53.32,1.15.57,1.85.75.71.18,1.41.35,2.12.51,1.15.22,2.28.49,3.37.79,1.09.31,2.07.75,2.94,1.35.87.59,1.56,1.4,2.09,2.41.53,1.01.79,2.37.79,4.07,0,1.22-.26,2.36-.77,3.42-.51,1.06-1.24,1.97-2.17,2.74-.87.77-1.87,1.37-3.01,1.8-1.14.43-2.37.65-3.68.65-1.03,0-2-.1-2.91-.31-.91-.21-1.76-.49-2.53-.84-.87-.42-1.62-.92-2.26-1.52-.64-.59-1.19-1.26-1.64-2-.29-.51-.35-1.05-.19-1.61.16-.56.5-.99,1.01-1.28.51-.29,1.05-.36,1.61-.22.56.14.99.47,1.28.99.45.8,1.12,1.41,2.02,1.83.96.48,2.17.72,3.61.72.77,0,1.49-.12,2.17-.36s1.25-.57,1.73-.99c.45-.42.81-.88,1.08-1.4.27-.51.41-1.06.41-1.64,0-.83-.17-1.51-.51-2.02-.34-.51-.78-.92-1.32-1.23-.55-.3-1.16-.55-1.85-.75-.69-.19-1.4-.35-2.14-.48-1.16-.26-2.28-.53-3.37-.82-1.09-.29-2.06-.74-2.91-1.35-.85-.61-1.54-1.42-2.07-2.43s-.79-2.35-.79-4.02c0-1.22.26-2.36.77-3.42.51-1.06,1.22-1.99,2.12-2.79Z"/>
      </g>
      <g>
        <circle class="cls-5" cx="147.06" cy="152.95" r="129.51"/>
        <path class="cls-2" d="M147.06,284.03c-72.28,0-131.08-58.8-131.08-131.08S74.78,21.87,147.06,21.87s131.08,58.8,131.08,131.08-58.8,131.08-131.08,131.08ZM147.06,25.02c-70.54,0-127.94,57.39-127.94,127.94s57.39,127.94,127.94,127.94,127.94-57.39,127.94-127.94S217.6,25.02,147.06,25.02Z"/>
      </g>
      <g>
        <circle class="cls-1" cx="147.06" cy="152.95" r="119.74"/>
        <path class="cls-2" d="M147.06,273.9c-66.69,0-120.95-54.26-120.95-120.95s54.26-120.95,120.95-120.95,120.95,54.26,120.95,120.95-54.26,120.95-120.95,120.95ZM147.06,34.43c-65.35,0-118.52,53.17-118.52,118.52s53.17,118.52,118.52,118.52,118.52-53.17,118.52-118.52-53.17-118.52-118.52-118.52Z"/>
      </g>
      <g>
        <circle class="cls-4" cx="145.8" cy="131.15" r="41.63"/>
        <path class="cls-2" d="M145.8,173.99c-23.63,0-42.85-19.22-42.85-42.85s19.22-42.85,42.85-42.85,42.85,19.22,42.85,42.85-19.22,42.85-42.85,42.85ZM145.8,90.73c-22.29,0-40.42,18.13-40.42,40.42s18.13,40.42,40.42,40.42,40.42-18.13,40.42-40.42-18.13-40.42-40.42-40.42Z"/>
      </g>
      <g>
        <path class="cls-5" d="M266.82,152.95c-40.01,1.8-100.68,59.14-101.5,59.92-6.16.25-12.29.4-18.27.4h-.06c-5.94,0-12.03-.14-18.14-.39,0,0-61.23-58.12-101.51-59.92,0-19.66,4.74-38.23,13.14-54.59l17.27,17.63,11.94-13.37,37.72,42.66,16.78-22.48,22.81,26.34,23-26.34,16.78,22.48,37.72-42.66,11.94,13.37,17.23-17.59c8.39,16.36,13.12,34.9,13.12,54.55Z"/>
        <path class="cls-2" d="M147.05,214.49c-5.68,0-11.8-.13-18.24-.39-.29-.01-.57-.13-.79-.33-.61-.58-61.36-57.82-100.73-59.59-.65-.03-1.16-.56-1.16-1.21,0-19.43,4.47-37.99,13.27-55.15.18-.35.51-.59.9-.65.39-.06.78.07,1.05.35l16.36,16.7,11.08-12.4c.23-.26.56-.41.91-.41.39,0,.68.15.91.41l36.73,41.54,15.89-21.29c.22-.3.56-.47.93-.49.37-.02.72.14.96.42l21.9,25.29,22.08-25.29c.24-.28.6-.44.96-.42.37.01.71.19.93.49l15.89,21.29,36.73-41.54c.23-.26.58-.41.91-.41.35,0,.68.15.91.41l11.08,12.4,16.32-16.66c.27-.28.66-.41,1.05-.35.39.06.72.3.9.65,8.79,17.16,13.25,35.7,13.25,55.11,0,.65-.51,1.19-1.16,1.21-39.42,1.77-100.11,59.01-100.72,59.58-.21.2-.49.32-.79.33-6.42.27-12.59.4-18.32.4ZM129.37,211.68c6.24.25,12.17.37,17.63.37s11.59-.13,17.82-.38c4.92-4.59,62.03-57.13,100.78-59.87-.17-18.03-4.28-35.29-12.22-51.34l-16.04,16.38c-.24.24-.56.36-.9.37-.34,0-.65-.15-.88-.41l-11.03-12.35-36.82,41.64c-.24.27-.6.42-.96.41-.37-.02-.71-.19-.92-.49l-15.88-21.28-22.01,25.21c-.23.26-.56.42-.92.42-.36-.02-.69-.15-.92-.42l-21.82-25.2-15.88,21.27c-.22.29-.56.47-.92.49-.36.02-.72-.14-.96-.41l-36.82-41.64-11.03,12.35c-.22.25-.54.4-.88.41-.34,0-.66-.12-.9-.37l-16.08-16.42c-7.96,16.05-12.07,33.32-12.24,51.38,39.13,2.73,95.42,54.82,100.79,59.88ZM266.82,152.95h.01-.01Z"/>
      </g>
      <g>
        <path class="cls-1" d="M128.83,212.88c-44.54-1.84-90.38-9.45-90.38-9.45-7.14-15.34-11.13-32.44-11.13-50.48,40.28,1.81,101.51,59.92,101.51,59.92Z"/>
        <path class="cls-2" d="M128.83,214.09s-.03,0-.05,0c-44.11-1.82-90.07-9.39-90.52-9.46-.4-.07-.73-.32-.9-.69-7.46-16.02-11.25-33.18-11.25-50.99,0-.33.14-.65.38-.88s.55-.35.9-.34c40.27,1.81,99.78,57.87,102.29,60.26.37.35.48.89.28,1.36-.19.45-.63.74-1.12.74ZM39.29,202.33c5.53.89,46.18,7.27,86.27,9.18-11.61-10.54-62.16-54.69-97.01-57.27.18,16.78,3.79,32.95,10.74,48.09Z"/>
      </g>
      <g>
        <path class="cls-1" d="M165.28,212.88c44.54-1.84,90.38-9.45,90.38-9.45,7.14-15.34,11.13-32.44,11.13-50.48-40.28,1.81-101.51,59.92-101.51,59.92Z"/>
        <path class="cls-2" d="M165.28,214.09c-.49,0-.93-.29-1.12-.74-.2-.47-.08-1.01.28-1.36,2.51-2.39,62.02-58.45,102.29-60.26.33-.01.65.11.9.34.24.23.38.55.38.88,0,17.81-3.78,34.97-11.25,50.99-.17.36-.51.62-.9.69-.46.08-46.42,7.64-90.52,9.46-.02,0-.03,0-.05,0ZM265.57,154.24c-34.85,2.58-85.4,46.73-97.01,57.27,40.09-1.91,80.74-8.29,86.27-9.18,6.95-15.14,10.57-31.31,10.74-48.09Z"/>
      </g>
      <g>
        <path class="cls-1" d="M255.67,203.47c-19.05,40.88-60.51,69.21-108.59,69.21s-89.54-28.34-108.59-69.22c0,0,59.23,9.8,108.47,9.8h.06c48.35,0,106.51-9.45,108.65-9.8Z"/>
        <path class="cls-2" d="M147.09,273.9c-46.84,0-89.9-27.45-109.69-69.92-.19-.41-.14-.89.13-1.25.27-.36.72-.54,1.17-.46.59.1,59.7,9.79,108.27,9.79h.05c48.22,0,106.02-9.38,108.45-9.78.45-.07.89.11,1.17.47.27.36.32.84.13,1.25-19.79,42.47-62.85,69.91-109.69,69.91ZM40.6,205.03c19.82,40.44,61.36,66.44,106.49,66.44s86.68-26,106.49-66.43c-11.53,1.81-62.92,9.45-106.5,9.45h-.05c-43.38,0-95.03-7.67-106.43-9.45Z"/>
      </g>
      <g>
        <path class="cls-1" d="M238.13,230.68c-21.96,25.71-54.61,42.01-91.08,42.01s-69.11-16.29-91.07-42c24.03-5.84,88.77-5.33,91.07-5.3h.06c2.28-.02,66.94-.54,91.02,5.29Z"/>
        <path class="cls-2" d="M147.05,273.9c-35.43,0-68.96-15.46-91.99-42.42-.27-.32-.36-.76-.23-1.16.13-.4.46-.71.87-.81,24.15-5.87,88.64-5.36,91.37-5.34,2.77-.02,67.15-.53,91.35,5.33.41.1.74.4.87.81.13.4.04.84-.23,1.16-23.04,26.97-56.57,42.44-92,42.44ZM58.23,231.43c22.52,25.47,54.77,40.04,88.82,40.04s66.3-14.57,88.82-40.05c-25.27-5.32-86.11-4.84-88.75-4.81-2.73-.03-63.67-.5-88.89,4.83Z"/>
      </g>
      <g>
        <path class="cls-4" d="M170.62,46.37c0,21.09-23.57,31.27-23.57,31.27,0,0-23.57-10.17-23.57-31.27S147.06,1.24,147.06,1.24c0,0,23.57,24.03,23.57,45.12Z"/>
        <path class="cls-2" d="M147.06,78.88c-.17,0-.34-.03-.49-.1-.99-.43-24.32-10.75-24.32-32.41S145.19,1.37,146.17.37c.47-.48,1.31-.48,1.77,0,.98,1,23.92,24.64,23.92,45.99s-23.32,31.98-24.32,32.41c-.16.07-.32.1-.49.1ZM147.06,3.05c-4.25,4.61-22.32,25.28-22.32,43.31s18.99,28.3,22.32,29.9c3.33-1.6,22.32-11.54,22.32-29.9S151.31,7.67,147.06,3.05Z"/>
      </g>
      <path class="cls-2" d="M132.26,213.41c-.67,0-1.22-.54-1.22-1.22v-12.28c0-20.83,14.44-39.61,15.06-40.4.41-.53,1.18-.62,1.71-.21.53.41.63,1.18.21,1.71-.15.19-14.54,18.93-14.54,38.9v12.28c0,.67-.54,1.22-1.22,1.22Z"/>
      <g>
        <path class="cls-5" d="M161.86,212.2s0-7.88,0-12.28c0-20.65-14.8-39.65-14.8-39.65h.06s-14.8,19-14.8,39.65c0,4.4,0,12.28,0,12.28h29.54Z"/>
        <path class="cls-2" d="M161.86,213.41c-.67,0-1.22-.54-1.22-1.22v-12.28c0-16.89-10.28-32.88-13.55-37.54-3.28,4.67-13.55,20.66-13.55,37.54v12.28c0,.67-.54,1.22-1.22,1.22s-1.22-.54-1.22-1.22v-12.28c0-19.63,12.83-37.45,14.82-40.09.01-.03.03-.06.04-.1.2-.42.63-.68,1.09-.68s.92.26,1.12.68c1.72,2.26,14.89,20.29,14.89,40.18v12.28c0,.67-.54,1.22-1.22,1.22Z"/>
      </g>
      <g>
        <path class="cls-3" d="M155.08,25.03c0,11.12-8.02,16.48-8.02,16.48,0,0-8.02-5.36-8.02-16.48s8.02-23.79,8.02-23.79c0,0,8.02,12.67,8.02,23.79Z"/>
        <path class="cls-2" d="M147.06,42.75c-.24,0-.48-.07-.69-.21-.35-.23-8.58-5.86-8.58-17.51s7.88-23.92,8.22-24.45c.23-.36.62-.58,1.05-.58h0c.43,0,.82.22,1.05.58.34.53,8.22,13.1,8.22,24.45s-8.23,17.28-8.58,17.51c-.21.14-.45.21-.69.21ZM147.06,3.7c-2.14,3.83-6.78,13.1-6.78,21.32s4.92,13.38,6.78,14.92c1.86-1.53,6.78-6.4,6.78-14.92s-4.65-17.5-6.78-21.32Z"/>
      </g>
      <path class="cls-2" d="M147.06,76.61c-.69,0-1.24-.56-1.24-1.24v-33.86c0-.69.56-1.24,1.24-1.24s1.24.56,1.24,1.24v33.86c0,.69-.56,1.24-1.24,1.24Z"/>
      <g>
        <path class="cls-2" d="M157.62,219.4c-1.58-8-4.78-10.4-10.56-10.4s-9.12,3.2-10.56,10.4l-5.97,29.91c-.24,1.18.67,2.29,1.88,2.29h29.32c1.21,0,2.11-1.1,1.88-2.28-1.25-6.21-4.69-23.41-5.97-29.92Z"/>
        <g>
          <rect class="cls-2" x="138.48" y="248.86" width="6.23" height="14.97" rx=".72" ry=".72"/>
          <rect class="cls-2" x="149.41" y="248.86" width="6.23" height="14.97" rx=".72" ry=".72"/>
        </g>
      </g>
      <path class="cls-2" d="M147.06,61.77c-.69,0-1.24-.56-1.24-1.24,0-4.29-3.2-7.6-6.9-11.44-6.21-6.43-13.93-14.42-7.03-30.27.27-.63,1.01-.92,1.63-.64.63.27.92,1.01.64,1.63-6.24,14.32.26,21.04,6.54,27.55,3.91,4.05,7.6,7.87,7.6,13.16,0,.69-.56,1.24-1.24,1.24Z"/>
      <path class="cls-2" d="M147.06,73.5c-.45,0-.88-.24-1.1-.67-2.96-5.67-7.55-9.65-11.99-13.51-5.48-4.76-10.66-9.26-11.51-16.17-.08-.68.4-1.3,1.08-1.39.68-.08,1.3.4,1.39,1.08.74,5.97,5.34,9.97,10.68,14.6,4.4,3.82,9.38,8.15,12.56,14.23.32.61.08,1.36-.52,1.68-.18.1-.38.14-.57.14Z"/>
      <path class="cls-2" d="M147.06,61.77c-.69,0-1.24-.56-1.24-1.24,0-5.29,3.69-9.12,7.6-13.16,6.28-6.5,12.77-13.23,6.54-27.55-.27-.63.01-1.36.64-1.63.63-.27,1.36.01,1.63.64,6.9,15.84-.82,23.84-7.03,30.27-3.7,3.83-6.9,7.15-6.9,11.44,0,.69-.56,1.24-1.24,1.24Z"/>
      <path class="cls-2" d="M147.06,73.5c-.19,0-.39-.05-.57-.14-.61-.32-.84-1.07-.52-1.68,3.18-6.08,8.17-10.41,12.56-14.23,5.33-4.63,9.94-8.64,10.68-14.6.08-.68.71-1.16,1.39-1.08.68.08,1.16.7,1.08,1.39-.85,6.91-6.03,11.41-11.51,16.17-4.44,3.86-9.03,7.84-11.99,13.51-.22.42-.65.67-1.1.67Z"/>
      <path class="cls-2" d="M147.06,213.41c-.67,0-1.22-.54-1.22-1.22v-23.87c0-.67.54-1.22,1.22-1.22s1.22.54,1.22,1.22v23.87c0,.67-.54,1.22-1.22,1.22Z"/>
      <path class="cls-2" d="M147.06,203.59c-.31,0-.62-.12-.86-.36l-12.94-12.94c-.47-.48-.47-1.24,0-1.72.47-.47,1.25-.47,1.72,0l12.94,12.94c.47.48.47,1.24,0,1.72-.24.24-.55.36-.86.36Z"/>
      <path class="cls-2" d="M147,189.54c-.31,0-.62-.12-.86-.36l-9.12-9.12c-.47-.48-.47-1.24,0-1.72.47-.47,1.25-.47,1.72,0l9.12,9.12c.47.48.47,1.24,0,1.72-.24.24-.55.36-.86.36Z"/>
      <path class="cls-2" d="M147.06,203.59c-.31,0-.62-.12-.86-.36-.47-.48-.47-1.24,0-1.72l12.94-12.94c.47-.47,1.25-.47,1.72,0,.47.48.47,1.24,0,1.72l-12.94,12.94c-.24.24-.55.36-.86.36Z"/>
      <path class="cls-2" d="M147.12,189.54c-.31,0-.62-.12-.86-.36-.47-.48-.47-1.24,0-1.72l9.12-9.12c.47-.47,1.25-.47,1.72,0,.47.48.47,1.24,0,1.72l-9.12,9.12c-.24.24-.55.36-.86.36Z"/>
      <path class="cls-2" d="M128.83,213.41c-.3,0-.6-.11-.83-.33-.61-.57-61.36-57.15-100.73-58.92-.67-.03-1.19-.6-1.16-1.27.03-.67.6-1.17,1.27-1.16,40.27,1.81,99.77,57.21,102.29,59.57.49.46.51,1.23.05,1.72-.24.25-.56.38-.89.38Z"/>
      <path class="cls-2" d="M91.12,211.18c-.32,0-.64-.13-.88-.38-.31-.33-31.61-32.8-60.71-33.55-.67-.02-1.2-.58-1.18-1.25.02-.67.57-1.23,1.25-1.18,30.11.78,61.1,32.94,62.4,34.31.46.49.44,1.26-.04,1.72-.24.22-.54.34-.84.34Z"/>
      <path class="cls-2" d="M147.12,203.59c-.31,0-.62-.12-.86-.36l-12.94-12.94c-.47-.48-.47-1.24,0-1.72.47-.47,1.25-.47,1.72,0l12.94,12.94c.47.48.47,1.24,0,1.72-.24.24-.55.36-.86.36Z"/>
      <path class="cls-2" d="M147.06,189.54c-.31,0-.62-.12-.86-.36l-9.12-9.12c-.47-.48-.47-1.24,0-1.72.47-.47,1.25-.47,1.72,0l9.12,9.12c.47.48.47,1.24,0,1.72-.24.24-.55.36-.86.36Z"/>
      <path class="cls-2" d="M203.29,211.36c-.35,0-.69-.15-.93-.43-.43-.51-.37-1.28.15-1.71,1.61-1.36,39.7-33.27,61.99-34.27.67,0,1.24.49,1.27,1.16s-.49,1.24-1.16,1.27c-21.46.96-60.14,33.37-60.53,33.7-.23.19-.51.29-.78.29Z"/>
      <path class="cls-2" d="M161.54,193.77c-.3,0-.6-.11-.83-.33-.49-.46-.52-1.23-.06-1.72l24.55-26.25c.45-.48,1.2-.52,1.7-.08l17.19,15.32c.5.45.55,1.22.1,1.72-.45.5-1.21.55-1.72.1l-16.3-14.53-23.74,25.39c-.24.26-.56.39-.89.39Z"/>
      <path class="cls-2" d="M120.28,160.81c-.33,0-.67-.14-.91-.4l-12.85-14.3c-.45-.5-.41-1.27.09-1.72.5-.45,1.27-.41,1.72.09l12.85,14.3c.45.5.41,1.27-.09,1.72-.23.21-.52.31-.81.31Z"/>
      <path class="cls-2" d="M173.96,160.81c-.29,0-.58-.1-.81-.31-.5-.45-.54-1.22-.09-1.72l12.85-14.3c.45-.5,1.22-.54,1.72-.09.5.45.54,1.22.09,1.72l-12.85,14.3c-.24.27-.57.4-.91.4Z"/>
      <path class="cls-2" d="M132.63,193.77c-.33,0-.65-.13-.89-.39l-23.74-25.39-16.3,14.53c-.5.45-1.27.4-1.72-.1-.45-.5-.4-1.27.1-1.72l17.19-15.32c.49-.44,1.25-.41,1.7.08l24.55,26.25c.46.49.43,1.26-.06,1.72-.23.22-.53.33-.83.33Z"/>
      <path class="cls-2" d="M100.82,173.99c-.32,0-.64-.12-.87-.37l-32.52-33.65-17.14,19.02c-.45.5-1.22.54-1.72.09-.5-.45-.54-1.22-.09-1.72l18.01-19.99c.23-.25.54-.4.88-.4.33,0,.66.13.9.37l33.43,34.59c.47.48.45,1.25-.03,1.72-.24.23-.54.34-.85.34Z"/>
      <path class="cls-2" d="M193.36,173.99c-.3,0-.61-.11-.85-.34-.48-.47-.5-1.24-.03-1.72l33.43-34.59c.23-.24.56-.37.9-.37.34,0,.66.15.88.4l18.01,19.99c.45.5.41,1.27-.09,1.72-.5.45-1.27.41-1.72-.09l-17.14-19.02-32.52,33.65c-.24.25-.56.37-.87.37Z"/>
    </g>
  </g>
</svg>