<?xml version="1.0" encoding="UTF-8"?>
<svg id="Layer_2" data-name="Layer 2" xmlns="http://www.w3.org/2000/svg" viewBox="0 0 14.47 16.45">
  <defs>
    <style>
      .cls-1 {
        fill: none;
      }

      .cls-1, .cls-2, .cls-3 {
        stroke-width: 0px;
      }

      .cls-2 {
        fill: #1f2d19;
      }

      .cls-3 {
        fill: #fff;
      }
    </style>
  </defs>
  <g id="Capa_2" data-name="Capa 2">
    <circle class="cls-3" cx="7.24" cy="9.22" r="6.99"/>
    <g>
      <g>
        <circle class="cls-1" cx="7.24" cy="9.22" r="6.49"/>
        <path class="cls-2" d="M7.24,16.2C3.38,16.2.25,13.07.25,9.22S3.38,2.23,7.24,2.23s6.99,3.13,6.99,6.99-3.13,6.99-6.99,6.99ZM7.24,3.23c-3.3,0-5.99,2.69-5.99,5.99s2.69,5.99,5.99,5.99,5.99-2.69,5.99-5.99-2.69-5.99-5.99-5.99Z"/>
      </g>
      <path class="cls-2" d="M7.24,2.73c3.58,0,6.49,2.9,6.49,6.49s-2.9,6.49-6.49,6.49S.75,12.8.75,9.22,3.65,2.73,7.24,2.73M7.24,1.98C3.25,1.98,0,5.23,0,9.22s3.25,7.24,7.24,7.24,7.24-3.25,7.24-7.24S11.23,1.98,7.24,1.98h0Z"/>
      <g>
        <path class="cls-3" d="M8.69,3.16c0,1.3-1.46,1.93-1.46,1.93,0,0-1.46-.63-1.46-1.93S7.24.37,7.24.37c0,0,1.46,1.48,1.46,2.79Z"/>
        <path class="cls-2" d="M7.24,5.46c-.05,0-.1,0-.15-.03-.07-.03-1.68-.74-1.68-2.28C5.41,1.72,6.9.17,6.97.11c.14-.14.39-.14.54,0,.06.07,1.56,1.61,1.56,3.05,0,1.53-1.61,2.25-1.68,2.28-.05.02-.1.03-.15.03ZM7.24.93c-.44.53-1.08,1.46-1.08,2.22,0,.81.75,1.33,1.08,1.51.33-.18,1.08-.7,1.08-1.51,0-.76-.64-1.69-1.08-2.22Z"/>
      </g>
      <g>
        <g>
          <path class="cls-2" d="M8.64,7.72c-.21-1.07-.64-1.39-1.41-1.39s-1.21.43-1.4,1.39l-.8,3.98c-.03.16.09.31.25.31h.81v1.47c0,.09.07.16.16.16h1.97c.09,0,.16-.07.16-.16v-1.47h.81c.16,0,.28-.15.25-.31-.17-.82-.63-3.11-.8-3.98ZM6.09,11.74s.05-.1.1-.1h.06c-.09,0-.16.08-.16.16v-.06Z"/>
          <path class="cls-2" d="M6.25,11.64c-.09,0-.16.08-.16.16v-.06s.05-.1.1-.1h.06Z"/>
        </g>
        <g>
          <path class="cls-2" d="M6.25,13.64h-.06c-.05,0-.1-.05-.1-.1v-.06c0,.09.07.16.16.16Z"/>
          <path class="cls-2" d="M6.09,11.8v-.06s.05-.1.1-.1h.06c-.09,0-.16.08-.16.16Z"/>
        </g>
      </g>
    </g>
  </g>
</svg>