<svg xmlns="http://www.w3.org/2000/svg" xmlns:xlink="http://www.w3.org/1999/xlink" width="500" zoomAndPan="magnify" viewBox="0 0 375 187.499995" height="250" preserveAspectRatio="xMidYMid meet" version="1.0"><defs><g/></defs><g fill="#000000" fill-opacity="1"><g transform="translate(12.307621, 116.518911)"><g><path d="M 27.214844 -46.519531 C 26.515625 -46.519531 26.109375 -46.171875 25.933594 -45.472656 L 19.480469 -16.515625 L 13.027344 -45.472656 C 12.851562 -46.171875 12.445312 -46.519531 11.746094 -46.519531 L 4.070312 -46.519531 C 3.316406 -46.519531 2.90625 -46.113281 2.90625 -45.359375 L 2.90625 -1.164062 C 2.90625 -0.40625 3.316406 0 4.070312 0 L 9.421875 0 C 10.175781 0 10.582031 -0.40625 10.582031 -1.164062 L 10.582031 -27.332031 L 10.992188 -27.332031 L 16.746094 -1.046875 C 16.921875 -0.347656 17.328125 0 18.027344 0 L 20.875 0 C 21.574219 0 21.980469 -0.347656 22.15625 -1.046875 L 27.914062 -27.332031 L 28.320312 -27.332031 L 28.320312 -1.164062 C 28.320312 -0.40625 28.726562 0 29.484375 0 L 34.890625 0 C 35.648438 0 36.054688 -0.40625 36.054688 -1.164062 L 36.054688 -45.359375 C 36.054688 -46.113281 35.648438 -46.519531 34.890625 -46.519531 Z M 27.214844 -46.519531 "/></g></g></g><g fill="#000000" fill-opacity="1"><g transform="translate(51.268936, 116.518911)"><g><path d="M 2.675781 -46.519531 C 2.09375 -46.519531 1.746094 -46.171875 1.746094 -45.589844 L 1.746094 -39.777344 C 1.746094 -39.195312 2.09375 -38.84375 2.675781 -38.84375 L 9.421875 -38.84375 L 9.421875 -0.929688 C 9.421875 -0.289062 9.769531 0 10.351562 0 L 16.398438 0 C 17.039062 0 17.328125 -0.289062 17.328125 -0.929688 L 17.328125 -38.84375 L 24.074219 -38.84375 C 24.714844 -38.84375 25.003906 -39.195312 25.003906 -39.777344 L 25.003906 -45.589844 C 25.003906 -46.171875 24.714844 -46.519531 24.074219 -46.519531 Z M 2.675781 -46.519531 "/></g></g></g><g fill="#000000" fill-opacity="1"><g transform="translate(78.018478, 116.518911)"><g><path d="M 26.109375 -45.589844 C 26.109375 -46.171875 25.878906 -46.519531 25.179688 -46.519531 L 3.78125 -46.519531 C 3.257812 -46.519531 2.90625 -46.171875 2.90625 -45.589844 L 2.90625 -0.929688 C 2.90625 -0.347656 3.257812 0 3.78125 0 L 25.179688 0 C 25.878906 0 26.109375 -0.347656 26.109375 -0.929688 L 26.109375 -6.746094 C 26.109375 -7.386719 25.878906 -7.675781 25.179688 -7.675781 L 10.640625 -7.675781 L 10.640625 -19.421875 L 21.75 -19.421875 C 22.332031 -19.421875 22.679688 -19.769531 22.679688 -20.410156 L 22.679688 -26.167969 C 22.679688 -26.808594 22.332031 -27.15625 21.75 -27.15625 L 10.640625 -27.15625 L 10.640625 -38.785156 L 25.179688 -38.785156 C 25.878906 -38.785156 26.109375 -39.195312 26.109375 -39.777344 Z M 26.109375 -45.589844 "/></g></g></g><g fill="#000000" fill-opacity="1"><g transform="translate(107.035934, 116.518911)"><g><path d="M 18.257812 -27.097656 L 10.816406 -27.097656 L 10.816406 -45.589844 C 10.816406 -46.171875 10.46875 -46.519531 9.886719 -46.519531 L 3.894531 -46.519531 C 3.199219 -46.519531 2.90625 -46.171875 2.90625 -45.589844 L 2.90625 -0.929688 C 2.90625 -0.347656 3.199219 0 3.894531 0 L 9.886719 0 C 10.46875 0 10.816406 -0.347656 10.816406 -0.929688 L 10.816406 -19.421875 L 18.257812 -19.421875 L 18.257812 -0.929688 C 18.257812 -0.347656 18.609375 0 19.191406 0 L 25.179688 0 C 25.878906 0 26.167969 -0.347656 26.167969 -0.929688 L 26.167969 -45.589844 C 26.167969 -46.171875 25.878906 -46.519531 25.179688 -46.519531 L 19.191406 -46.519531 C 18.609375 -46.519531 18.257812 -46.171875 18.257812 -45.589844 Z M 18.257812 -27.097656 "/></g></g></g><g fill="#000000" fill-opacity="1"><g transform="translate(136.111547, 116.518911)"><g><path d="M 26.109375 -45.589844 C 26.109375 -46.171875 25.878906 -46.519531 25.179688 -46.519531 L 3.78125 -46.519531 C 3.257812 -46.519531 2.90625 -46.171875 2.90625 -45.589844 L 2.90625 -0.929688 C 2.90625 -0.347656 3.257812 0 3.78125 0 L 25.179688 0 C 25.878906 0 26.109375 -0.347656 26.109375 -0.929688 L 26.109375 -6.746094 C 26.109375 -7.386719 25.878906 -7.675781 25.179688 -7.675781 L 10.640625 -7.675781 L 10.640625 -19.421875 L 21.75 -19.421875 C 22.332031 -19.421875 22.679688 -19.769531 22.679688 -20.410156 L 22.679688 -26.167969 C 22.679688 -26.808594 22.332031 -27.15625 21.75 -27.15625 L 10.640625 -27.15625 L 10.640625 -38.785156 L 25.179688 -38.785156 C 25.878906 -38.785156 26.109375 -39.195312 26.109375 -39.777344 Z M 26.109375 -45.589844 "/></g></g></g><g fill="#000000" fill-opacity="1"><g transform="translate(165.129004, 116.518911)"><g><path d="M 26.808594 -38.148438 C 26.808594 -43.613281 23.898438 -46.519531 18.433594 -46.519531 L 3.839844 -46.519531 C 3.257812 -46.519531 2.90625 -46.171875 2.90625 -45.589844 L 2.90625 -0.929688 C 2.90625 -0.347656 3.257812 0 3.839844 0 L 9.886719 0 C 10.46875 0 10.816406 -0.347656 10.816406 -0.929688 L 10.816406 -15.585938 L 14.828125 -15.585938 L 18.726562 -0.8125 C 18.839844 -0.289062 19.132812 0 19.714844 0 L 25.761719 0 C 26.402344 0 26.75 -0.347656 26.574219 -1.046875 L 22.5625 -16.28125 C 25.355469 -17.503906 26.808594 -20.0625 26.808594 -23.957031 Z M 10.816406 -23.261719 L 10.816406 -38.84375 L 16.574219 -38.84375 C 18.085938 -38.84375 18.898438 -38.03125 18.898438 -36.519531 L 18.898438 -25.585938 C 18.898438 -24.074219 18.085938 -23.261719 16.574219 -23.261719 Z M 10.816406 -23.261719 "/></g></g></g><g fill="#000000" fill-opacity="1"><g transform="translate(194.844264, 116.518911)"><g><path d="M 30.9375 0 C 31.632812 0 31.867188 -0.347656 31.75 -0.988281 L 22.097656 -45.707031 C 21.980469 -46.289062 21.632812 -46.519531 21.109375 -46.519531 L 13.027344 -46.519531 C 12.503906 -46.519531 12.152344 -46.289062 12.039062 -45.707031 L 2.382812 -0.988281 C 2.210938 -0.347656 2.5 0 3.140625 0 L 9.363281 0 C 9.886719 0 10.175781 -0.289062 10.292969 -0.8125 L 11.863281 -9.304688 L 22.214844 -9.304688 L 23.84375 -0.8125 C 23.957031 -0.289062 24.25 0 24.773438 0 Z M 20.761719 -16.050781 L 13.316406 -16.050781 L 17.039062 -36.34375 Z M 20.761719 -16.050781 "/></g></g></g><g fill="#000000" fill-opacity="1"><g transform="translate(228.920883, 116.518911)"><g><path d="M 20.761719 -46.519531 C 20.121094 -46.519531 19.828125 -46.171875 19.828125 -45.589844 L 19.828125 -21.050781 L 19.480469 -21.050781 L 10.640625 -45.765625 C 10.46875 -46.289062 10.117188 -46.519531 9.59375 -46.519531 L 3.839844 -46.519531 C 3.257812 -46.519531 2.90625 -46.171875 2.90625 -45.589844 L 2.90625 -0.929688 C 2.90625 -0.347656 3.257812 0 3.839844 0 L 9.886719 0 C 10.527344 0 10.816406 -0.347656 10.816406 -0.929688 L 10.816406 -25.585938 L 11.105469 -25.585938 L 20.003906 -0.757812 C 20.179688 -0.234375 20.527344 0 21.050781 0 L 26.808594 0 C 27.390625 0 27.738281 -0.347656 27.738281 -0.929688 L 27.738281 -45.589844 C 27.738281 -46.171875 27.390625 -46.519531 26.808594 -46.519531 Z M 20.761719 -46.519531 "/></g></g></g><g fill="#000000" fill-opacity="1"><g transform="translate(259.566572, 116.518911)"><g><path d="M 2.90625 -1.164062 C 2.90625 -0.40625 3.316406 0 4.070312 0 L 9.363281 0 C 10.117188 0 10.527344 -0.40625 10.527344 -1.164062 L 10.527344 -6.511719 C 10.527344 -7.269531 10.117188 -7.675781 9.363281 -7.675781 L 4.070312 -7.675781 C 3.316406 -7.675781 2.90625 -7.269531 2.90625 -6.511719 Z M 2.90625 -1.164062 "/></g></g></g><g fill="#000000" fill-opacity="1"><g transform="translate(272.999517, 116.518911)"><g><path d="M 2.90625 -0.929688 C 2.90625 -0.289062 3.199219 0 3.839844 0 L 17.792969 0 C 23.261719 0 26.167969 -2.90625 26.167969 -8.375 L 26.167969 -38.089844 C 26.167969 -43.554688 23.261719 -46.519531 17.792969 -46.519531 L 3.839844 -46.519531 C 3.199219 -46.519531 2.90625 -46.171875 2.90625 -45.589844 Z M 10.816406 -7.675781 L 10.816406 -38.84375 L 16.167969 -38.84375 C 17.679688 -38.84375 18.492188 -38.03125 18.492188 -36.460938 L 18.492188 -10.003906 C 18.492188 -8.433594 17.679688 -7.675781 16.167969 -7.675781 Z M 10.816406 -7.675781 "/></g></g></g><g fill="#000000" fill-opacity="1"><g transform="translate(302.07513, 116.518911)"><g><path d="M 26.109375 -45.589844 C 26.109375 -46.171875 25.878906 -46.519531 25.179688 -46.519531 L 3.78125 -46.519531 C 3.257812 -46.519531 2.90625 -46.171875 2.90625 -45.589844 L 2.90625 -0.929688 C 2.90625 -0.347656 3.257812 0 3.78125 0 L 25.179688 0 C 25.878906 0 26.109375 -0.347656 26.109375 -0.929688 L 26.109375 -6.746094 C 26.109375 -7.386719 25.878906 -7.675781 25.179688 -7.675781 L 10.640625 -7.675781 L 10.640625 -19.421875 L 21.75 -19.421875 C 22.332031 -19.421875 22.679688 -19.769531 22.679688 -20.410156 L 22.679688 -26.167969 C 22.679688 -26.808594 22.332031 -27.15625 21.75 -27.15625 L 10.640625 -27.15625 L 10.640625 -38.785156 L 25.179688 -38.785156 C 25.878906 -38.785156 26.109375 -39.195312 26.109375 -39.777344 Z M 26.109375 -45.589844 "/></g></g></g><g fill="#000000" fill-opacity="1"><g transform="translate(331.092587, 116.518911)"><g><path d="M 23.203125 -46.519531 C 22.503906 -46.519531 22.097656 -46.171875 21.921875 -45.472656 L 15.757812 -14.304688 L 9.652344 -45.472656 C 9.480469 -46.171875 9.070312 -46.519531 8.375 -46.519531 L 2.847656 -46.519531 C 1.976562 -46.519531 1.628906 -46.054688 1.800781 -45.242188 L 11.570312 -1.046875 C 11.746094 -0.347656 12.152344 0 12.851562 0 L 18.667969 0 C 19.363281 0 19.769531 -0.347656 19.945312 -1.046875 L 29.773438 -45.242188 C 29.949219 -46.054688 29.597656 -46.519531 28.726562 -46.519531 Z M 23.203125 -46.519531 "/></g></g></g></svg>