<?xml version="1.0" encoding="UTF-8"?>
<svg id="Layer_2" data-name="Layer 2" xmlns="http://www.w3.org/2000/svg" viewBox="0 0 517.21 180.58">
  <defs>
    <style>
      .cls-1 {
        fill: #49b8a4;
      }

      .cls-1,
      .cls-2,
      .cls-3,
      .cls-4,
      .cls-5 {
        stroke-width: 0px;
      }

      .cls-2 {
        fill: #1f2d19;
      }

      .cls-3 {
        fill: #f49400;
      }

      .cls-4 {
        fill: #fff;
      }

      .cls-5 {
        fill: #00a897;
      }

      .cls-5 {
        fill: #fff;
      }
    </style>
  </defs>
  <g id="Capa_2" data-name="Capa 2">
    <g>
      <g>
        <path class="cls-5"
          d="M191.12,77.84c-2.03-2.03-3.63-4.39-4.79-7.07-1.16-2.68-1.74-5.57-1.74-8.65s.58-5.97,1.74-8.65c1.16-2.68,2.76-5.04,4.79-7.07,1.99-2.03,4.33-3.62,7.02-4.76,2.68-1.14,5.57-1.71,8.65-1.71s5.93.58,8.65,1.74c1.38.58,2.67,1.29,3.89,2.12,1.21.83,2.35,1.78,3.4,2.83.47.51.7,1.09.68,1.74-.02.65-.26,1.2-.73,1.63-.47.47-1.03.71-1.69.71s-1.22-.24-1.69-.71c-.83-.83-1.72-1.59-2.67-2.26-.94-.67-1.96-1.22-3.05-1.66-2.14-.91-4.41-1.36-6.8-1.36s-4.64.45-6.75,1.36c-2.1.91-3.95,2.16-5.55,3.75-1.6,1.56-2.85,3.4-3.75,5.52-.91,2.12-1.36,4.38-1.36,6.77s.45,4.65,1.36,6.77c.91,2.12,2.16,3.96,3.75,5.52,1.6,1.6,3.45,2.85,5.55,3.75,2.1.91,4.35,1.36,6.75,1.36s4.66-.45,6.8-1.36c.94-.4,1.83-.87,2.67-1.41.83-.54,1.61-1.14,2.34-1.8v-9.96h-10.77c-.69,0-1.26-.23-1.71-.68-.45-.45-.68-1.02-.68-1.71,0-.65.23-1.21.68-1.66s1.02-.68,1.71-.68h13.17c.69,0,1.26.23,1.71.68.45.45.68,1.01.68,1.66v13.33c0,.73-.25,1.31-.76,1.74-2.07,2.1-4.46,3.74-7.18,4.9-2.72,1.16-5.6,1.74-8.65,1.74s-5.97-.57-8.65-1.71c-2.68-1.14-5.02-2.73-7.02-4.76Z" />
        <path class="cls-5"
          d="M236.06,71.64c0,1.05.2,2.02.6,2.91.4.89.92,1.68,1.58,2.37.69.69,1.48,1.22,2.37,1.61.89.38,1.86.57,2.91.57s2.02-.19,2.91-.57c.89-.38,1.68-.92,2.37-1.61.69-.69,1.22-1.48,1.61-2.37.38-.89.57-1.86.57-2.91v-19.7c0-.65.24-1.21.71-1.69.47-.47,1.03-.71,1.69-.71s1.22.24,1.69.71c.47.47.71,1.03.71,1.69v19.7c0,1.71-.32,3.3-.95,4.79-.64,1.49-1.52,2.77-2.64,3.86-1.09,1.13-2.38,2-3.86,2.64-1.49.63-3.08.95-4.79.95s-3.29-.32-4.76-.95c-1.47-.63-2.77-1.51-3.89-2.64-1.12-1.09-2-2.38-2.64-3.86-.64-1.49-.95-3.08-.95-4.79v-19.7c0-.65.24-1.21.71-1.69.47-.47,1.03-.71,1.69-.71.69,0,1.26.24,1.71.71.45.47.68,1.03.68,1.69v19.7Z" />
        <path class="cls-5"
          d="M261.91,83.67c-.47-.18-.83-.47-1.09-.87-.25-.4-.38-.83-.38-1.31,0-.36.05-.67.16-.92l3.59-8.71c0-.07.02-.11.05-.11l8.49-20.73c.18-.47.48-.83.9-1.09.42-.25.86-.38,1.33-.38.33,0,.62.05.87.16.62.25,1.05.69,1.31,1.31l12.13,29.55c.11.25.16.56.16.92,0,.47-.13.91-.38,1.31-.25.4-.62.69-1.09.87-.25.11-.56.16-.93.16-.47,0-.91-.13-1.31-.38-.4-.25-.69-.62-.87-1.09l-2.99-7.24h-13.87l-2.99,7.24c-.18.47-.47.83-.87,1.09-.4.25-.83.38-1.31.38-.33,0-.63-.05-.92-.16ZM269.96,70.34h9.96l-4.95-12.13-5.01,12.13Z" />
        <path class="cls-5"
          d="M320.62,60.54c0,1.52-.29,2.96-.87,4.3-.58,1.34-1.36,2.5-2.34,3.48-1.41,1.41-3.12,2.38-5.11,2.88l7.62,8.71c.44.51.63,1.09.6,1.74-.04.65-.31,1.2-.82,1.63-.51.44-1.09.63-1.74.6-.65-.04-1.2-.31-1.63-.82l-10.07-11.54h-5.71v9.96c0,.69-.24,1.26-.71,1.71-.47.45-1.03.68-1.69.68-.69,0-1.26-.23-1.71-.68-.45-.45-.68-1.02-.68-1.71v-29.55c0-.65.23-1.21.68-1.69.45-.47,1.02-.71,1.71-.71h11.48c1.52,0,2.95.29,4.27.87,1.32.58,2.49,1.38,3.51,2.39.98.98,1.76,2.13,2.34,3.46.58,1.32.87,2.75.87,4.27ZM313.98,64.95c.58-.58,1.03-1.24,1.36-1.99.33-.74.49-1.55.49-2.42s-.16-1.63-.49-2.39-.78-1.41-1.36-1.96c-.54-.58-1.2-1.03-1.96-1.36-.76-.33-1.56-.49-2.39-.49h-9.09v12.41h9.09c1.78,0,3.23-.6,4.35-1.8Z" />
        <path class="cls-5"
          d="M329.98,83.88c-.65,0-1.22-.24-1.69-.71-.47-.47-.71-1.03-.71-1.69v-29.55c0-.65.24-1.21.71-1.69.47-.47,1.03-.71,1.69-.71h10.61c2.39,0,4.63.44,6.69,1.33,2.07.89,3.88,2.11,5.44,3.67,1.56,1.56,2.78,3.37,3.67,5.44.89,2.07,1.33,4.3,1.33,6.69s-.44,4.62-1.33,6.69c-.89,2.07-2.11,3.88-3.67,5.44-1.56,1.56-3.37,2.79-5.44,3.7-2.07.91-4.3,1.36-6.69,1.36h-10.61ZM349.35,57.93c-1.16-1.12-2.48-2-3.94-2.64-1.47-.63-3.07-.95-4.82-.95h-8.22v24.76h8.22c1.74,0,3.35-.33,4.84-.98,1.49-.65,2.79-1.54,3.92-2.67s2-2.43,2.64-3.92c.63-1.49.95-3.1.95-4.84s-.32-3.35-.95-4.82c-.63-1.47-1.51-2.78-2.64-3.94Z" />
        <path class="cls-5"
          d="M367.19,83.88c-.65,0-1.22-.24-1.69-.71-.47-.47-.71-1.03-.71-1.69v-29.55c0-.65.24-1.21.71-1.69.47-.47,1.03-.71,1.69-.71.69,0,1.26.24,1.71.71.45.47.68,1.03.68,1.69v29.55c0,.65-.23,1.22-.68,1.69-.45.47-1.03.71-1.71.71Z" />
        <path class="cls-5"
          d="M377.37,83.67c-.47-.18-.83-.47-1.09-.87-.25-.4-.38-.83-.38-1.31,0-.36.05-.67.16-.92l3.59-8.71c0-.07.02-.11.05-.11l8.49-20.73c.18-.47.48-.83.9-1.09.42-.25.86-.38,1.33-.38.33,0,.62.05.87.16.62.25,1.05.69,1.31,1.31l12.13,29.55c.11.25.16.56.16.92,0,.47-.13.91-.38,1.31-.25.4-.62.69-1.09.87-.25.11-.56.16-.93.16-.47,0-.91-.13-1.31-.38-.4-.25-.69-.62-.87-1.09l-2.99-7.24h-13.87l-2.99,7.24c-.18.47-.47.83-.87,1.09-.4.25-.83.38-1.31.38-.33,0-.63-.05-.92-.16ZM385.42,70.34h9.96l-4.95-12.13-5.01,12.13Z" />
        <path class="cls-5"
          d="M413.61,83.88c-.65,0-1.22-.24-1.69-.71-.47-.47-.71-1.03-.71-1.69v-29.55c0-.62.17-1.12.52-1.5.34-.38.66-.63.95-.73.54-.25,1.09-.3,1.63-.14.54.16.96.5,1.25,1.01l15.34,23.02v-21.66c0-.65.24-1.21.71-1.69.47-.47,1.03-.71,1.69-.71s1.22.24,1.69.71c.47.47.71,1.03.71,1.69v29.55c-.04.47-.15.93-.33,1.39-.18.45-.64.75-1.36.9-.51.07-1.02.04-1.52-.11-.51-.14-.91-.44-1.2-.87l-15.29-22.96v21.66c0,.65-.24,1.22-.71,1.69-.47.47-1.03.71-1.69.71Z" />
        <path class="cls-5"
          d="M445.71,83.88c-.65,0-1.22-.24-1.69-.71-.47-.47-.71-1.03-.71-1.69v-29.55c0-.65.24-1.21.71-1.69.47-.47,1.03-.71,1.69-.71h17.03c.65,0,1.21.24,1.69.71.47.47.71,1.03.71,1.69s-.24,1.22-.71,1.69-1.03.71-1.69.71h-14.64v9.09h11.26c.69,0,1.26.23,1.71.68.45.45.68,1.01.68,1.66,0,.69-.23,1.26-.68,1.71s-1.02.68-1.71.68h-11.26v10.94h14.64c.65,0,1.21.23,1.69.68.47.45.71,1.02.71,1.71,0,.65-.24,1.22-.71,1.69s-1.03.71-1.69.71h-17.03Z" />
        <path class="cls-5"
          d="M473.41,52.33c.98-.83,2.11-1.5,3.4-2.01,1.29-.51,2.67-.76,4.16-.76,1.05,0,2.04.13,2.97.38.92.25,1.8.6,2.64,1.03,1.78.94,3.14,2.25,4.08,3.92.33.58.4,1.19.22,1.82-.18.64-.56,1.12-1.14,1.44-.58.33-1.19.4-1.82.22-.64-.18-1.12-.56-1.44-1.14-.44-.8-1.16-1.49-2.18-2.07-.47-.25-.99-.45-1.55-.6-.56-.14-1.15-.22-1.77-.22-1.78,0-3.25.53-4.41,1.58-1.09.91-1.63,2.05-1.63,3.43,0,.91.19,1.65.57,2.23.38.58.87,1.05,1.47,1.41.6.36,1.3.64,2.09.84.8.2,1.6.39,2.39.57,1.31.25,2.58.55,3.81.9,1.23.35,2.34.85,3.32,1.52.98.67,1.77,1.58,2.37,2.72.6,1.14.9,2.68.9,4.6,0,1.38-.29,2.67-.87,3.86-.58,1.2-1.4,2.23-2.45,3.1-.98.87-2.11,1.55-3.4,2.04-1.29.49-2.68.73-4.16.73-1.16,0-2.26-.12-3.29-.35-1.03-.24-1.99-.55-2.86-.95-.98-.47-1.83-1.04-2.56-1.71-.73-.67-1.34-1.42-1.85-2.26-.33-.58-.4-1.19-.22-1.82.18-.63.56-1.12,1.14-1.44.58-.33,1.19-.41,1.82-.24.63.16,1.12.54,1.44,1.12.51.91,1.27,1.6,2.29,2.07,1.09.54,2.45.82,4.08.82.87,0,1.69-.14,2.45-.41s1.41-.64,1.96-1.12c.51-.47.92-1,1.22-1.58.31-.58.46-1.2.46-1.85,0-.94-.19-1.7-.57-2.29-.38-.58-.88-1.04-1.5-1.39-.62-.34-1.32-.63-2.09-.84-.78-.22-1.59-.4-2.42-.54-1.31-.29-2.58-.6-3.81-.93-1.23-.33-2.33-.83-3.29-1.52-.96-.69-1.74-1.61-2.34-2.75s-.9-2.66-.9-4.54c0-1.38.29-2.67.87-3.86.58-1.2,1.38-2.25,2.39-3.16Z" />
        <path class="cls-5"
          d="M186.06,139.59c-.47-.18-.83-.48-1.09-.9-.25-.42-.38-.86-.38-1.33,0-.29.05-.58.16-.87l4.84-11.7c0-.07.02-.13.05-.16l11.43-27.8c.18-.47.48-.83.9-1.09.42-.25.86-.38,1.33-.38.33,0,.62.05.87.16.65.29,1.09.73,1.31,1.31l16.27,39.67c.14.29.22.6.22.93,0,.47-.14.91-.41,1.31-.27.4-.63.69-1.06.87-.25.11-.56.16-.93.16-1.02,0-1.76-.49-2.23-1.47l-4.19-10.28h-19.75l-4.19,10.28c-.47.98-1.22,1.47-2.23,1.47-.33,0-.63-.05-.92-.16ZM195.36,123.21h15.83l-7.94-19.21-7.89,19.21Z" />
        <path class="cls-5"
          d="M230.35,140.44c-.65,0-1.22-.24-1.69-.71-.47-.47-.71-1.03-.71-1.69v-29.55c0-.62.17-1.12.52-1.5.34-.38.66-.63.95-.73.54-.25,1.09-.3,1.63-.14.54.16.96.5,1.25,1.01l15.34,23.02v-21.66c0-.65.24-1.21.71-1.69.47-.47,1.03-.71,1.69-.71s1.22.24,1.69.71c.47.47.71,1.03.71,1.69v29.55c-.04.47-.15.93-.33,1.39-.18.45-.64.75-1.36.9-.51.07-1.02.04-1.52-.11-.51-.14-.91-.44-1.2-.87l-15.29-22.96v21.66c0,.65-.24,1.22-.71,1.69-.47.47-1.03.71-1.69.71Z" />
        <path class="cls-5"
          d="M276.11,140.44c-2.39,0-4.63-.45-6.69-1.36-2.07-.91-3.88-2.14-5.44-3.7-1.56-1.56-2.78-3.37-3.67-5.44-.89-2.07-1.33-4.3-1.33-6.69s.44-4.63,1.33-6.69c.89-2.07,2.11-3.88,3.67-5.44,1.56-1.56,3.37-2.78,5.44-3.67,2.07-.89,4.3-1.33,6.69-1.33s4.55.45,6.69,1.36c1.05.43,2.05.98,2.99,1.63.94.65,1.81,1.38,2.61,2.18.47.51.71,1.09.71,1.74s-.25,1.2-.76,1.63c-.47.47-1.03.71-1.69.71s-1.22-.24-1.69-.71c-1.2-1.23-2.54-2.18-4.03-2.83-1.52-.62-3.14-.93-4.84-.93s-3.35.32-4.82.95c-1.47.64-2.78,1.51-3.94,2.64-1.12,1.16-2,2.48-2.64,3.94-.63,1.47-.95,3.07-.95,4.82s.32,3.36.95,4.84c.63,1.49,1.51,2.79,2.64,3.92,1.16,1.12,2.48,2.01,3.94,2.67,1.47.65,3.07.98,4.82.98.87,0,1.71-.09,2.53-.27.82-.18,1.59-.42,2.31-.71,1.56-.65,2.9-1.58,4.03-2.77.47-.47,1.03-.72,1.69-.73.65-.02,1.21.21,1.69.68.51.47.76,1.03.76,1.69s-.24,1.22-.71,1.69c-1.6,1.63-3.46,2.92-5.6,3.86-2.14.91-4.37,1.36-6.69,1.36Z" />
        <path class="cls-5"
          d="M298.26,140.44c-.65,0-1.22-.24-1.69-.71-.47-.47-.71-1.03-.71-1.69v-29.55c0-.65.24-1.21.71-1.69.47-.47,1.03-.71,1.69-.71h17.03c.65,0,1.21.24,1.69.71.47.47.71,1.03.71,1.69s-.24,1.22-.71,1.69-1.03.71-1.69.71h-14.64v9.09h11.26c.69,0,1.26.23,1.71.68.45.45.68,1.01.68,1.66,0,.69-.23,1.26-.68,1.71s-1.02.68-1.71.68h-11.26v10.94h14.64c.65,0,1.21.23,1.69.68.47.45.71,1.02.71,1.71,0,.65-.24,1.22-.71,1.69s-1.03.71-1.69.71h-17.03Z" />
        <path class="cls-5"
          d="M325.95,108.88c.98-.83,2.11-1.5,3.4-2.01,1.29-.51,2.67-.76,4.16-.76,1.05,0,2.04.13,2.97.38.92.25,1.8.6,2.64,1.03,1.78.94,3.14,2.25,4.08,3.92.33.58.4,1.19.22,1.82-.18.64-.56,1.12-1.14,1.44-.58.33-1.19.4-1.82.22-.64-.18-1.12-.56-1.44-1.14-.44-.8-1.16-1.49-2.18-2.07-.47-.25-.99-.45-1.55-.6-.56-.14-1.15-.22-1.77-.22-1.78,0-3.25.53-4.41,1.58-1.09.91-1.63,2.05-1.63,3.43,0,.91.19,1.65.57,2.23.38.58.87,1.05,1.47,1.41.6.36,1.3.64,2.09.84.8.2,1.6.39,2.39.57,1.31.25,2.58.55,3.81.9,1.23.35,2.34.85,3.32,1.52.98.67,1.77,1.58,2.37,2.72.6,1.14.9,2.68.9,4.6,0,1.38-.29,2.67-.87,3.86-.58,1.2-1.4,2.23-2.45,3.1-.98.87-2.11,1.55-3.4,2.04-1.29.49-2.68.73-4.16.73-1.16,0-2.26-.12-3.29-.35-1.03-.24-1.99-.55-2.86-.95-.98-.47-1.83-1.04-2.56-1.71-.73-.67-1.34-1.42-1.85-2.26-.33-.58-.4-1.19-.22-1.82.18-.63.56-1.12,1.14-1.44.58-.33,1.19-.41,1.82-.24.63.16,1.12.54,1.44,1.12.51.91,1.27,1.6,2.29,2.07,1.09.54,2.45.82,4.08.82.87,0,1.69-.14,2.45-.41s1.41-.64,1.96-1.12c.51-.47.92-1,1.22-1.58.31-.58.46-1.2.46-1.85,0-.94-.19-1.7-.57-2.29-.38-.58-.88-1.04-1.5-1.39-.62-.34-1.32-.63-2.09-.84-.78-.22-1.59-.4-2.42-.54-1.31-.29-2.58-.6-3.81-.93-1.23-.33-2.33-.83-3.29-1.52-.96-.69-1.74-1.61-2.34-2.75-.6-1.14-.9-2.66-.9-4.54,0-1.38.29-2.67.87-3.86.58-1.2,1.38-2.25,2.39-3.16Z" />
        <path class="cls-5"
          d="M348.21,108.5c0-.65.24-1.21.71-1.69.47-.47,1.03-.71,1.69-.71h18.66c.65,0,1.21.24,1.69.71.47.47.71,1.03.71,1.69,0,.69-.24,1.26-.71,1.71-.47.45-1.03.68-1.69.68h-6.96v27.15c0,.69-.23,1.26-.68,1.71-.45.45-1.03.68-1.71.68-.65,0-1.22-.23-1.69-.68-.47-.45-.71-1.02-.71-1.71v-27.15h-6.91c-.65,0-1.22-.23-1.69-.68-.47-.45-.71-1.02-.71-1.71Z" />
        <path class="cls-5"
          d="M403.05,117.1c0,1.52-.29,2.96-.87,4.3-.58,1.34-1.36,2.5-2.34,3.48-1.41,1.41-3.12,2.38-5.11,2.88l7.62,8.71c.44.51.63,1.09.6,1.74-.04.65-.31,1.2-.82,1.63-.51.44-1.09.63-1.74.6-.65-.04-1.2-.31-1.63-.82l-10.07-11.54h-5.71v9.96c0,.69-.24,1.26-.71,1.71-.47.45-1.03.68-1.69.68-.69,0-1.26-.23-1.71-.68-.45-.45-.68-1.02-.68-1.71v-29.55c0-.65.23-1.21.68-1.69.45-.47,1.02-.71,1.71-.71h11.48c1.52,0,2.95.29,4.27.87,1.32.58,2.49,1.38,3.51,2.39.98.98,1.76,2.13,2.34,3.46.58,1.32.87,2.75.87,4.27ZM396.41,121.51c.58-.58,1.03-1.24,1.36-1.99.33-.74.49-1.55.49-2.42s-.16-1.63-.49-2.39-.78-1.41-1.36-1.96c-.54-.58-1.2-1.03-1.96-1.36-.76-.33-1.56-.49-2.39-.49h-9.09v12.41h9.09c1.78,0,3.23-.6,4.35-1.8Z" />
        <path class="cls-5"
          d="M410.18,140.22c-.47-.18-.83-.47-1.09-.87-.25-.4-.38-.83-.38-1.31,0-.36.05-.67.16-.92l3.59-8.71c0-.07.02-.11.05-.11l8.49-20.73c.18-.47.48-.83.9-1.09.42-.25.86-.38,1.33-.38.33,0,.62.05.87.16.62.25,1.05.69,1.31,1.31l12.13,29.55c.11.25.16.56.16.92,0,.47-.13.91-.38,1.31-.25.4-.62.69-1.09.87-.25.11-.56.16-.93.16-.47,0-.91-.13-1.31-.38-.4-.25-.69-.62-.87-1.09l-2.99-7.24h-13.87l-2.99,7.24c-.18.47-.47.83-.87,1.09-.4.25-.83.38-1.31.38-.33,0-.63-.05-.92-.16ZM418.23,126.89h9.96l-4.95-12.13-5.01,12.13Z" />
        <path class="cls-5"
          d="M446.42,140.44c-.65,0-1.22-.24-1.69-.71-.47-.47-.71-1.03-.71-1.69v-29.55c0-.65.24-1.21.71-1.69.47-.47,1.03-.71,1.69-.71s1.21.24,1.69.71c.47.47.71,1.03.71,1.69v27.15h11.48c.69,0,1.26.23,1.71.68.45.45.68,1.02.68,1.71,0,.65-.23,1.22-.68,1.69-.45.47-1.02.71-1.71.71h-13.87Z" />
        <path class="cls-5"
          d="M471.07,140.44c-.65,0-1.22-.24-1.69-.71-.47-.47-.71-1.03-.71-1.69v-29.55c0-.65.24-1.21.71-1.69.47-.47,1.03-.71,1.69-.71h17.03c.65,0,1.21.24,1.69.71.47.47.71,1.03.71,1.69s-.24,1.22-.71,1.69-1.03.71-1.69.71h-14.64v9.09h11.26c.69,0,1.26.23,1.71.68.45.45.68,1.01.68,1.66,0,.69-.23,1.26-.68,1.71s-1.02.68-1.71.68h-11.26v10.94h14.64c.65,0,1.21.23,1.69.68.47.45.71,1.02.71,1.71,0,.65-.24,1.22-.71,1.69s-1.03.71-1.69.71h-17.03Z" />
        <path class="cls-5"
          d="M498.76,108.88c.98-.83,2.11-1.5,3.4-2.01,1.29-.51,2.67-.76,4.16-.76,1.05,0,2.04.13,2.97.38.92.25,1.8.6,2.64,1.03,1.78.94,3.14,2.25,4.08,3.92.33.58.4,1.19.22,1.82-.18.64-.56,1.12-1.14,1.44-.58.33-1.19.4-1.82.22-.64-.18-1.12-.56-1.44-1.14-.44-.8-1.16-1.49-2.18-2.07-.47-.25-.99-.45-1.55-.6-.56-.14-1.15-.22-1.77-.22-1.78,0-3.25.53-4.41,1.58-1.09.91-1.63,2.05-1.63,3.43,0,.91.19,1.65.57,2.23.38.58.87,1.05,1.47,1.41.6.36,1.3.64,2.09.84.8.2,1.6.39,2.39.57,1.31.25,2.58.55,3.81.9,1.23.35,2.34.85,3.32,1.52.98.67,1.77,1.58,2.37,2.72.6,1.14.9,2.68.9,4.6,0,1.38-.29,2.67-.87,3.86-.58,1.2-1.4,2.23-2.45,3.1-.98.87-2.11,1.55-3.4,2.04-1.29.49-2.68.73-4.16.73-1.16,0-2.26-.12-3.29-.35-1.03-.24-1.99-.55-2.86-.95-.98-.47-1.83-1.04-2.56-1.71-.73-.67-1.34-1.42-1.85-2.26-.33-.58-.4-1.19-.22-1.82.18-.63.56-1.12,1.14-1.44.58-.33,1.19-.41,1.82-.24.63.16,1.12.54,1.44,1.12.51.91,1.27,1.6,2.29,2.07,1.09.54,2.45.82,4.08.82.87,0,1.69-.14,2.45-.41s1.41-.64,1.96-1.12c.51-.47.92-1,1.22-1.58.31-.58.46-1.2.46-1.85,0-.94-.19-1.7-.57-2.29-.38-.58-.88-1.04-1.5-1.39-.62-.34-1.32-.63-2.09-.84-.78-.22-1.59-.4-2.42-.54-1.31-.29-2.58-.6-3.81-.93-1.23-.33-2.33-.83-3.29-1.52-.96-.69-1.74-1.61-2.34-2.75s-.9-2.66-.9-4.54c0-1.38.29-2.67.87-3.86.58-1.2,1.38-2.25,2.39-3.16Z" />
      </g>
      <g>
        <g>
          <circle class="cls-3" cx="83.34" cy="97.24" r="82.34" />
          <path class="cls-2"
            d="M83.34,180.58C37.39,180.58,0,143.19,0,97.24S37.39,13.9,83.34,13.9s83.34,37.39,83.34,83.34-37.39,83.34-83.34,83.34ZM83.34,15.9C38.49,15.9,2,52.39,2,97.24s36.49,81.34,81.34,81.34,81.34-36.49,81.34-81.34S128.2,15.9,83.34,15.9Z" />
        </g>
        <g>
          <circle class="cls-1" cx="83.34" cy="97.24" r="76.13" />
          <path class="cls-2"
            d="M83.34,174.14c-42.4,0-76.9-34.5-76.9-76.9S40.94,20.34,83.34,20.34s76.9,34.5,76.9,76.9-34.5,76.9-76.9,76.9ZM83.34,21.88C41.79,21.88,7.99,55.69,7.99,97.24s33.8,75.36,75.36,75.36,75.36-33.8,75.36-75.36S124.89,21.88,83.34,21.88Z" />
        </g>
        <g>
          <circle class="cls-4" cx="82.54" cy="83.37" r="26.47" />
          <path class="cls-2"
            d="M82.54,110.62c-15.02,0-27.24-12.22-27.24-27.24s12.22-27.24,27.24-27.24,27.24,12.22,27.24,27.24-12.22,27.24-27.24,27.24ZM82.54,57.68c-14.17,0-25.7,11.53-25.7,25.7s11.53,25.7,25.7,25.7,25.7-11.53,25.7-25.7-11.53-25.7-25.7-25.7Z" />
        </g>
        <g>
          <path class="cls-3"
            d="M159.49,97.24c-25.44,1.14-64.01,37.6-64.53,38.1-3.92.16-7.81.25-11.61.25h-.04c-3.78,0-7.65-.09-11.53-.25,0,0-38.93-36.95-64.54-38.1,0-12.5,3.01-24.3,8.36-34.71l10.98,11.21,7.59-8.5,23.99,27.13,10.67-14.3,14.51,16.75,14.62-16.75,10.67,14.3,23.99-27.13,7.59,8.5,10.95-11.18c5.33,10.4,8.34,22.19,8.34,34.68Z" />
          <path class="cls-2"
            d="M83.34,136.36c-3.61,0-7.5-.08-11.6-.25-.19,0-.37-.08-.5-.21-.39-.37-39.01-36.76-64.04-37.89-.41-.02-.74-.36-.74-.77,0-12.35,2.84-24.15,8.44-35.06.11-.22.33-.37.57-.41.25-.04.49.05.67.22l10.4,10.62,7.04-7.88c.15-.16.36-.26.58-.26h0c.22,0,.43.1.58.26l23.36,26.41,10.1-13.53c.14-.19.36-.3.59-.31.24-.02.46.09.61.27l13.92,16.08,14.04-16.08c.15-.18.37-.28.61-.26.23,0,.45.12.59.31l10.1,13.53,23.36-26.41c.15-.17.36-.26.58-.26h0c.22,0,.43.09.58.26l7.04,7.88,10.37-10.59c.17-.18.42-.26.67-.22.25.04.46.19.57.41,5.59,10.91,8.43,22.7,8.43,35.04,0,.41-.33.75-.74.77-25.04,1.12-63.65,37.52-64.04,37.88-.14.13-.31.2-.5.21-4.09.17-8.01.25-11.65.25ZM72.1,134.58c3.97.16,7.74.24,11.21.24s7.36-.08,11.33-.24c3.42-3.21,39.19-36.33,64.08-38.06-.11-11.47-2.72-22.44-7.77-32.64l-10.2,10.41c-.15.15-.36.22-.57.23-.21,0-.42-.1-.56-.26l-7.01-7.85-23.41,26.47c-.15.17-.37.28-.61.26-.23,0-.45-.12-.59-.31l-10.1-13.53-13.99,16.03c-.15.17-.36.26-.58.26-.26,0-.44-.1-.58-.27l-13.88-16.02-10.09,13.53c-.14.19-.35.3-.59.31-.23.01-.46-.09-.61-.26l-23.41-26.47-7.01,7.85c-.14.16-.35.25-.56.26-.2,0-.42-.08-.57-.23l-10.22-10.44c-5.06,10.21-7.68,21.19-7.78,32.67,24.88,1.74,60.67,34.86,64.08,38.07ZM159.49,97.24h0,0Z" />
        </g>
        <g>
          <path class="cls-1"
            d="M71.75,135.34c-28.32-1.17-57.46-6.01-57.46-6.01-4.54-9.75-7.08-20.63-7.08-32.09,25.61,1.15,64.54,38.1,64.54,38.1Z" />
          <path class="cls-2"
            d="M71.75,136.11s-.02,0-.03,0c-28.04-1.16-57.26-5.97-57.56-6.02-.25-.04-.47-.21-.57-.44-4.74-10.19-7.15-21.1-7.15-32.42,0-.21.09-.41.24-.56.15-.15.35-.23.57-.21,25.61,1.15,63.44,36.8,65.04,38.31.23.22.31.56.18.86-.12.29-.4.47-.71.47ZM14.82,128.64c3.52.57,29.36,4.62,54.85,5.84-7.38-6.7-39.53-34.77-61.68-36.41.11,10.67,2.41,20.95,6.83,30.58Z" />
        </g>
        <g>
          <path class="cls-1"
            d="M94.93,135.34c28.32-1.17,57.46-6.01,57.46-6.01,4.54-9.75,7.08-20.63,7.08-32.09-25.61,1.15-64.54,38.1-64.54,38.1Z" />
          <path class="cls-2"
            d="M94.93,136.11c-.31,0-.59-.19-.71-.47-.13-.3-.05-.64.18-.86,1.6-1.52,39.43-37.16,65.04-38.31.21-.01.42.07.57.21.15.15.24.35.24.56,0,11.32-2.41,22.23-7.15,32.42-.11.23-.32.39-.57.44-.29.05-29.51,4.86-57.56,6.02-.01,0-.02,0-.03,0ZM158.69,98.06c-22.16,1.64-54.3,29.71-61.68,36.41,25.49-1.21,51.33-5.27,54.85-5.84,4.42-9.63,6.72-19.91,6.83-30.58Z" />
        </g>
        <g>
          <path class="cls-1"
            d="M152.4,129.36c-12.11,25.99-38.47,44.01-69.04,44.01s-56.93-18.02-69.04-44.01c0,0,37.66,6.23,68.97,6.23h.04c30.74,0,67.72-6.01,69.08-6.23Z" />
          <path class="cls-2"
            d="M83.36,174.14c-29.78,0-57.16-17.45-69.74-44.46-.12-.26-.09-.57.08-.79s.46-.34.74-.3c.38.06,37.96,6.22,68.84,6.22h.03c30.69,0,67.41-5.97,68.96-6.22.28-.05.57.07.74.3s.21.53.08.79c-12.58,27-39.96,44.45-69.74,44.45ZM15.65,130.35c12.6,25.71,39.01,42.24,67.71,42.24s55.11-16.53,67.71-42.24c-7.33,1.15-39.98,6.01-67.72,6.01h-.03c-27.58,0-60.42-4.88-67.67-6.01Z" />
        </g>
        <g>
          <path class="cls-1"
            d="M141.25,146.66c-13.96,16.35-34.72,26.71-57.91,26.71s-43.94-10.36-57.9-26.7c15.28-3.71,56.44-3.39,57.9-3.37h.04c1.45-.01,42.56-.34,57.87,3.36Z" />
          <path class="cls-2"
            d="M83.34,174.14c-22.53,0-43.85-9.83-58.49-26.97-.17-.2-.23-.48-.15-.74.08-.26.29-.45.55-.51,15.37-3.74,56.36-3.41,58.09-3.39,1.76-.02,42.68-.34,58.08,3.39.26.06.47.26.55.51.08.26.03.54-.15.74-14.65,17.15-35.97,26.98-58.5,26.98ZM26.87,147.13c14.32,16.2,34.83,25.46,56.47,25.46s42.16-9.27,56.48-25.47c-16.08-3.38-54.75-3.07-56.43-3.06-1.73-.01-40.46-.32-56.52,3.07Z" />
        </g>
        <g>
          <path class="cls-4"
            d="M98.33,29.47c0,13.41-14.98,19.88-14.98,19.88,0,0-14.98-6.47-14.98-19.88S83.34.78,83.34.78c0,0,14.98,15.28,14.98,28.69Z" />
          <path class="cls-2"
            d="M83.34,50.14c-.11,0-.21-.02-.31-.06-.63-.27-15.46-6.83-15.46-20.61S82.16.86,82.78.23c.3-.3.83-.3,1.13,0,.62.63,15.21,15.66,15.21,29.24s-14.83,20.33-15.46,20.61c-.1.04-.21.06-.31.06ZM83.34,1.93c-2.7,2.93-14.19,16.07-14.19,27.54s12.08,17.99,14.19,19.01c2.12-1.02,14.19-7.34,14.19-19.01s-11.49-24.6-14.19-27.54Z" />
        </g>
        <path class="cls-2"
          d="M73.93,135.68c-.43,0-.77-.35-.77-.77v-7.81c0-13.24,9.18-25.18,9.57-25.69.26-.34.75-.4,1.08-.13s.4.75.14,1.08c-.09.12-9.25,12.03-9.25,24.74v7.81c0,.43-.35.77-.77.77Z" />
        <g>
          <path class="cls-3"
            d="M92.75,134.91s0-5.01,0-7.81c0-13.13-9.41-25.21-9.41-25.21h.04s-9.41,12.08-9.41,25.21v7.81" />
          <path class="cls-2"
            d="M92.75,135.68c-.43,0-.77-.35-.77-.77v-7.81c0-10.73-6.53-20.9-8.62-23.87-2.08,2.97-8.62,13.14-8.62,23.87v7.81c0,.43-.35.77-.77.77s-.77-.35-.77-.77v-7.81c0-12.49,8.16-23.82,9.42-25.49,0-.02.02-.04.03-.06.26-.53,1.15-.53,1.41,0,1.09,1.44,9.47,12.9,9.47,25.55v7.81c0,.43-.35.77-.77.77Z" />
        </g>
        <g>
          <path class="cls-5"
            d="M88.44,15.9c0,7.07-5.1,10.48-5.1,10.48,0,0-5.1-3.41-5.1-10.48s5.1-15.12,5.1-15.12c0,0,5.1,8.05,5.1,15.12Z" />
          <path class="cls-2"
            d="M83.34,27.17c-.15,0-.31-.04-.44-.13-.22-.15-5.45-3.73-5.45-11.14S82.46.69,82.68.36c.29-.46,1.04-.46,1.33,0,.21.34,5.23,8.33,5.23,15.55s-5.23,10.99-5.45,11.14c-.13.09-.29.13-.44.13ZM83.34,2.35c-1.36,2.43-4.31,8.33-4.31,13.56s3.13,8.51,4.31,9.49c1.18-.98,4.31-4.07,4.31-9.49s-2.95-11.12-4.31-13.56Z" />
        </g>
        <path class="cls-2"
          d="M83.34,48.7c-.44,0-.79-.35-.79-.79v-21.53c0-.44.35-.79.79-.79s.79.35.79.79v21.53c0,.44-.35.79-.79.79Z" />
        <g>
          <path class="cls-2"
            d="M90.06,139.49c-1-5.09-3.04-6.62-6.71-6.62s-5.8,2.04-6.71,6.62l-3.8,19.02c-.15.75.43,1.45,1.19,1.45h18.64c.77,0,1.34-.7,1.19-1.45-.79-3.95-2.98-14.89-3.8-19.02Z" />
          <g>
            <rect class="cls-2" x="77.89" y="158.22" width="3.96" height="9.52" rx=".46" ry=".46" />
            <rect class="cls-2" x="84.84" y="158.22" width="3.96" height="9.52" rx=".46" ry=".46" />
          </g>
        </g>
        <path class="cls-2"
          d="M83.34,39.27c-.44,0-.79-.35-.79-.79,0-2.73-2.03-4.83-4.39-7.27-3.95-4.09-8.85-9.17-4.47-19.24.17-.4.64-.58,1.04-.41.4.17.58.64.41,1.04-3.97,9.1.16,13.38,4.16,17.51,2.48,2.57,4.83,5,4.83,8.37,0,.44-.35.79-.79.79Z" />
        <path class="cls-2"
          d="M83.34,46.72c-.28,0-.56-.15-.7-.42-1.88-3.6-4.8-6.14-7.62-8.59-3.48-3.03-6.78-5.89-7.32-10.28-.05-.43.25-.83.69-.88.43-.06.83.25.88.69.47,3.79,3.4,6.34,6.79,9.28,2.8,2.43,5.97,5.18,7.99,9.05.2.39.05.86-.33,1.07-.12.06-.24.09-.37.09Z" />
        <path class="cls-2"
          d="M83.34,39.27c-.44,0-.79-.35-.79-.79,0-3.37,2.35-5.8,4.83-8.37,3.99-4.14,8.12-8.41,4.16-17.51-.17-.4,0-.87.41-1.04.4-.18.87,0,1.04.41,4.39,10.07-.52,15.16-4.47,19.24-2.35,2.44-4.39,4.54-4.39,7.27,0,.44-.35.79-.79.79Z" />
        <path class="cls-2"
          d="M83.34,46.72c-.12,0-.25-.03-.37-.09-.39-.2-.54-.68-.33-1.07,2.02-3.87,5.19-6.62,7.99-9.05,3.39-2.95,6.32-5.49,6.79-9.28.05-.43.44-.74.88-.69.43.05.74.45.69.88-.54,4.4-3.83,7.25-7.32,10.28-2.82,2.45-5.74,4.99-7.62,8.59-.14.27-.42.42-.7.42Z" />
        <path class="cls-2"
          d="M83.34,135.68c-.43,0-.77-.35-.77-.77v-15.18c0-.43.35-.77.77-.77s.77.35.77.77v15.18c0,.43-.35.77-.77.77Z" />
        <path class="cls-2"
          d="M83.34,129.44c-.2,0-.4-.08-.55-.23l-8.23-8.23c-.3-.3-.3-.79,0-1.09.3-.3.79-.3,1.09,0l8.23,8.23c.3.3.3.79,0,1.09-.15.15-.35.23-.55.23Z" />
        <path class="cls-2"
          d="M83.3,120.5c-.2,0-.4-.08-.55-.23l-5.8-5.8c-.3-.3-.3-.79,0-1.09.3-.3.79-.3,1.09,0l5.8,5.8c.3.3.3.79,0,1.09-.15.15-.35.23-.55.23Z" />
        <path class="cls-2"
          d="M83.34,129.44c-.2,0-.4-.08-.55-.23-.3-.3-.3-.79,0-1.09l8.23-8.23c.3-.3.79-.3,1.09,0,.3.3.3.79,0,1.09l-8.23,8.23c-.15.15-.35.23-.55.23Z" />
        <path class="cls-2"
          d="M83.38,120.5c-.2,0-.4-.08-.55-.23-.3-.3-.3-.79,0-1.09l5.8-5.8c.3-.3.79-.3,1.09,0,.3.3.3.79,0,1.09l-5.8,5.8c-.15.15-.35.23-.55.23Z" />
        <path class="cls-2"
          d="M71.76,135.68c-.19,0-.38-.07-.53-.21-.39-.36-39.01-36.34-64.05-37.46-.43-.02-.76-.38-.74-.81.02-.43.38-.77.81-.74,25.6,1.15,63.44,36.38,65.04,37.88.31.29.33.78.04,1.09-.15.16-.36.24-.56.24Z" />
        <path class="cls-2"
          d="M47.78,134.26c-.2,0-.41-.08-.56-.24-.2-.21-20.1-20.86-38.6-21.33-.43-.01-.76-.37-.75-.79s.37-.75.79-.75c19.14.49,38.85,20.94,39.68,21.81.29.31.28.8-.03,1.09-.15.14-.34.21-.53.21Z" />
        <path class="cls-2"
          d="M83.38,129.44c-.2,0-.4-.08-.55-.23l-8.23-8.23c-.3-.3-.3-.79,0-1.09.3-.3.79-.3,1.09,0l8.23,8.23c.3.3.3.79,0,1.09-.15.15-.35.23-.55.23Z" />
        <path class="cls-2"
          d="M83.34,120.5c-.2,0-.4-.08-.55-.23l-5.8-5.8c-.3-.3-.3-.79,0-1.09.3-.3.79-.3,1.09,0l5.8,5.8c.3.3.3.79,0,1.09-.15.15-.35.23-.55.23Z" />
        <path class="cls-2"
          d="M119.09,134.37c-.22,0-.44-.09-.59-.27-.28-.33-.23-.81.09-1.09,1.02-.86,25.24-21.15,39.41-21.79.42-.02.79.31.81.74s-.31.79-.74.81c-13.65.61-38.24,21.22-38.49,21.43-.15.12-.32.18-.5.18Z" />
        <path class="cls-2"
          d="M92.55,123.19c-.19,0-.38-.07-.53-.21-.31-.29-.33-.78-.04-1.09l15.61-16.69c.29-.31.77-.33,1.08-.05l10.93,9.74c.32.28.35.77.06,1.09-.28.32-.77.35-1.09.06l-10.37-9.24-15.09,16.14c-.15.16-.36.25-.56.25Z" />
        <path class="cls-2"
          d="M66.32,102.23c-.21,0-.42-.09-.58-.26l-8.17-9.09c-.29-.32-.26-.81.06-1.09.32-.29.81-.26,1.09.06l8.17,9.09c.29.32.26.81-.06,1.09-.15.13-.33.2-.52.2Z" />
        <path class="cls-2"
          d="M100.45,102.23c-.18,0-.37-.06-.52-.2-.32-.29-.34-.77-.06-1.09l8.17-9.09c.29-.32.77-.34,1.09-.06.32.29.34.77.06,1.09l-8.17,9.09c-.15.17-.36.26-.58.26Z" />
        <path class="cls-2"
          d="M74.17,123.19c-.21,0-.41-.08-.56-.25l-15.09-16.14-10.37,9.24c-.32.28-.81.26-1.09-.06-.28-.32-.26-.81.06-1.09l10.93-9.74c.31-.28.79-.26,1.08.05l15.61,16.69c.29.31.28.8-.04,1.09-.15.14-.34.21-.53.21Z" />
        <path class="cls-2"
          d="M53.94,110.62c-.2,0-.4-.08-.56-.24l-20.68-21.4-10.9,12.1c-.29.32-.77.34-1.09.06-.32-.29-.34-.77-.06-1.09l11.45-12.71c.14-.16.35-.25.56-.26.21-.01.42.08.57.24l21.25,21.99c.3.31.29.8-.02,1.09-.15.15-.34.22-.54.22Z" />
        <path class="cls-2"
          d="M112.78,110.62c-.19,0-.39-.07-.54-.22-.31-.3-.32-.79-.02-1.09l21.25-21.99c.15-.15.33-.25.57-.24.21,0,.42.1.56.26l11.45,12.71c.29.32.26.81-.06,1.09-.32.29-.81.26-1.09-.06l-10.9-12.1-20.68,21.4c-.15.16-.35.24-.56.24Z" />
      </g>
    </g>
  </g>
</svg>