<svg xmlns="http://www.w3.org/2000/svg" version="1.1" xmlns:xlink="http://www.w3.org/1999/xlink"
  xmlns:svgjs="http://svgjs.dev/svgjs" viewBox="0 0 600 600">
  <path
    d="M544.9102060248167 193.5842549288568C534.5808654079548 141.0393467231887 532.9341267198037 60.201022494266155 491.9161569525511 31.907609649926144C450.89818718529847 3.614196805586136 354.0419071763467 18.8836581194696 298.8023874213011 23.82377786281677C243.56286766625553 28.763897606163937 204.7904140402586 36.84772939327331 160.47903842227765 61.54832811000915C116.1676628042967 86.24892682674499 51.4970069179645 129.36270112636657 32.93413371341535 172.0273701632318C14.371260508866197 214.69203920009704 36.37724862989891 258.7040109916823 49.10179919498273 317.53634233120056C61.826349760066556 376.3686736707188 65.8682653357298 481.4584869031407 109.28143710391828 525.0213582003416C152.69460887210676 568.5842294975423 242.9640619208128 576.5183573051595 309.5808298041136 578.9135701144041C376.1975976874144 581.308782923649 468.2634825954547 578.0153869275553 508.98204440372297 539.3926350558104C549.7006062119912 500.7698831840651 547.904173716874 404.8117889050938 553.892200653723 347.17705888393493C559.880227590572 289.54232886277606 555.2395466416787 246.12916313452496 544.9102060248167 193.5842549288568C534.5808654079548 141.0393467231887 532.9341267198037 60.201022494266155 491.9161569525511 31.907609649926144 "
    fill="hsl(340, 45%, 50%)" transform="matrix(1.05,0,0,1.05,-14.258908843994163,-14.441595935821567)"></path>
</svg>